<?xml version="1.0" encoding="utf-8"?>
<!-- Generator: Adobe Illustrator 26.0.1, SVG Export Plug-In . SVG Version: 6.00 Build 0)  -->
<svg version="1.1" xmlns="http://www.w3.org/2000/svg" xmlns:xlink="http://www.w3.org/1999/xlink" x="0px" y="0px"
	 viewBox="0 0 1471.5 490.7" style="enable-background:new 0 0 1471.5 490.7;" xml:space="preserve">
<style type="text/css">
	.st0{clip-path:url(#SVGID_00000066482713800078959120000011557370531886679454_);}
	.st1{fill:#2FB3E8;}
	.st2{fill:#ED8B21;}
	.st3{fill:#FFD500;}
	.st4{clip-path:url(#SVGID_00000181045118309449937930000008118267587373173694_);}
	.st5{fill:#1D1D1B;}
	.st6{fill:#A1C351;}
	.st7{fill:#FFFFFF;}
	.st8{fill:#95C11F;}
	.st9{fill:none;stroke:#95C11F;stroke-width:0.2;}
	.st10{fill:none;stroke:#95C11F;stroke-width:0.1642;}
	.st11{fill:url(#SVGID_00000037678858944731638440000005601683937669530008_);}
	.st12{fill:none;stroke:#95C11F;stroke-width:2;}
	.st13{clip-path:url(#SVGID_00000040550814656981570270000006870165751877583786_);}
	.st14{fill:none;stroke:#A1C351;stroke-width:0.75;stroke-miterlimit:10;}
	.st15{fill:none;}
	.st16{fill:#6AAA37;}
	.st17{fill:none;stroke:#6AAA37;stroke-width:0.9791;}
	.st18{fill:none;stroke:#A1C351;stroke-width:0.5;stroke-miterlimit:10;}
	.st19{clip-path:url(#SVGID_00000157297908635682088020000004552769882402918070_);}
</style>
<g id="Laag_4">
	<g>
		<defs>
			<circle id="SVGID_1_" cx="228.4" cy="255" r="227.9"/>
		</defs>
		<clipPath id="SVGID_00000144323925765360225120000014547964895898743716_">
			<use xlink:href="#SVGID_1_"  style="overflow:visible;"/>
		</clipPath>
		<g style="clip-path:url(#SVGID_00000144323925765360225120000014547964895898743716_);">
			<rect x="261.6" y="0" class="st1" width="53.5" height="526.3"/>
			<rect x="207.5" y="0" class="st2" width="41.9" height="526.3"/>
			<rect x="181.6" class="st3" width="25.9" height="526.3"/>
			<g>
				<g>
					<defs>
						<rect id="SVGID_00000045589784939717305980000003093631214573708449_" x="261.6" y="88.6" width="269.2" height="826.6"/>
					</defs>
					<clipPath id="SVGID_00000109008912432695951390000000633728887874301824_">
						<use xlink:href="#SVGID_00000045589784939717305980000003093631214573708449_"  style="overflow:visible;"/>
					</clipPath>
					<g style="clip-path:url(#SVGID_00000109008912432695951390000000633728887874301824_);">
						<path class="st5" d="M254.8,879.2c-1.5-28.3-7.9-45.9-3.5-60.1c4.4-14.1,0.5-26.7-1.5-52c-2-25.2-2.5-32.3-3-38.9
							c-0.5-6.6,6.9,51,10.4,68.1c3.5,17.2,4.9,42.4,5.4,49.5C263.2,852.9,263.7,886.2,254.8,879.2z"/>
						<g>
							<path class="st6" d="M277.7,439.2c1,3.9,5.6,5.9,6.6,2c1-3.9-0.5-7.4-3-6.4C278.7,435.7,277.7,439.2,277.7,439.2z"/>
							<path class="st6" d="M264.9,494.8c1,3.9,5.6,5.9,6.6,2c1-3.9-0.5-7.4-3-6.4C265.9,491.3,264.9,494.8,264.9,494.8z"/>
							<path class="st6" d="M256,552.6c1,3.9,5.6,5.9,6.6,2s-0.5-7.4-3-6.4C257,549.2,256,552.6,256,552.6z"/>
							<path class="st6" d="M250.4,613.5c1,3.9,5.6,5.9,6.6,2c1-3.9-0.5-7.4-3-6.4C251.4,610,250.4,613.5,250.4,613.5z"/>
							<path class="st6" d="M245.9,621.2c0.5-17.3-0.5-46.9,3-74.5c3.5-27.6,11.3-76.5,14.3-97.7s7.9-36.5,9.9-44.4
								c2-7.9,4.4-12.3,3.9-6.4c-0.5,5.9-13.8,68.1-16.8,85.8c-3,17.8-10.9,70.5-11.3,83.4s-1.5,37.5-1.5,44.9
								S245.9,621.2,245.9,621.2z"/>
							<path class="st6" d="M290.8,451c6.9-18.7,7.9-21.2,12.8-29.6s5.4-9.9,8.4-11.3c3-1.5,6.9,4.4,1.5,5.9
								c-5.4,1.5-4.4,4.9-8.9,10.9c-4.4,5.9-5.9,8.4-8.4,14.8S290.8,451,290.8,451z"/>
						</g>
						<path class="st7" d="M311.7,634.8c4.3,5.3,10.2,18.4,13.2,27c3,8.6,7.2,21,8.2,29.6c1,8.6,3,16.8,1,20.4
							c-2,3.6-5.3,1.6-8.5-3.9c-3.3-5.6-5.9-7.6-5.3-14.1c0.7-6.6,1.3-6.6,0-16.4s-3-13.8-6.2-26c-3.3-12.2-3-16.4-3-16.4"/>
						<path class="st6" d="M254.7,356.9c4.7,7.1,11.7,21.9,17.5,27.3c5.8,5.3,5.5,6.5,7.3,10.7c1.8,4.1,0.4,3.6-9.1,3
							c-9.5-0.6-15.7-1.2-24.8,2.4c-9.1,3.6-12.1,5.3-13.9,8.9c-1.8,3.6-2.6,6.5-1.5,13c1.1,6.5,2.6-2.4,5.5,7.1
							c2.9,9.5,2.6,10.1,7.3,10.1c4.7,0,5.5-1.8,15-6.5c9.5-4.7,15-7.1,19.4-11.9c4.4-4.7,5.5-5.9,8.4-4.2c2.9,1.8,2.2,1.2,4.7,0.6
							c2.6-0.6,6.6,5.3,11.7,12.5c5.1,7.1,8,12.5,13.9,16.6c5.8,4.2,9.9,5.3,8-4.7c-1.8-10.1-3.7-5.9,0.4-14.2
							c4-8.3,5.5-14.8,1.5-19.6c-4-4.7-2.6-11.3-9.5-10.1c-6.9,1.2-8.8,0.6-12.8,0.6c-4,0,0-11.9,9.1-13.6c9.1-1.8,15-7.1,27-21.3
							c12.1-14.2,13.1-17.2,16.1-26.7c2.9-9.5-3.7,29.1-11,39.1c-7.3,10.1-15.3,17.2-21.2,18.4c-5.8,1.2-24.8,1.2-24.1,7.1
							c0.7,5.9-6.2-1.8-9.1,0.6c-2.9,2.4-3.3,0.6-5.8-7.1c-2.6-7.7-6.9-10.7-13.2-16.6C265.3,372.3,254.7,356.9,254.7,356.9z"/>
						<g>
							<g>
								<path class="st6" d="M528.6,589.6c-2.5-6.9-2-10.9-3.5-30.1c-1.5-19.2-8.9-39.5-10.4-50.8c-1.5-11.3-8.4-23.7-10.9-35
									c-2.5-11.3-7.4-21.7-9.4-29.6s-1.5-17.3-4.4-27.6c-3-10.4-10.4-19.2-24.2-25.2c-13.8-5.9-40-8.4-54.3-11.8
									s-40-11.8-41.4-15.3s-6.9-7.4-11.3-12.3c-4.4-4.9-5.9-5.9-7.9-1.5c-2,4.4-0.5,1.5-4.4,21.2c-3.9,19.7-10.9,34.5-21.2,61.2
									s-24.7,63.1-32.6,92.2c-7.9,29.1-23.7,73-31.1,94.2c-0.4,1-0.7,2-1.1,3c5.6,0.2,15.7,0.6,20.8,3.4
									c6.6,3.6,13.2,5.3,19.1,6.9c5.9,1.6,8.2,1.3,10.5,6.6c2.3,5.3,6.6,19.4,7.6,27.6c1,8.2,3.3,14.1,3,19.4
									c-0.3,5.3-3.3,4.9-3.3,4.9c-3.9-0.7-13.5-1.6-19.4-0.7c-5.9,1-22.4,4.9-31.9,9.9c-9.5,4.9-23.7,10.2-31.2,13.8
									c-7.6,3.6-16.1,6.6-19.1,5.3c-3-1.3-7.2,6.6-12.8,3.3c-5.6-3.3-4.9-6.2-7.6-4.9c-2.6,1.3-8.2,6.6-14.1-1.3
									c-5.9-7.9-6.2-8.9-6.6-11.5s-7.6-5.9-6.9-10.2c0.7-4.3-6.9-6.6-5.9-12.5c1-5.9,0.7-13.2-0.3-18.7c-1-5.6-2-8.9,2.6-12.2
									c4.6-3.3,0.7-8.5,6.6-12.5s10.9-7.6,16.1-14.1c5.3-6.6,12.5-6.9,18.1-13.8c5.6-6.9,6.9-10.9,9.9-11.8c3-1,7.2,1.3,7.6,4.6
									c0.3,3.1,3,4.2,7.8,7.1c-4.5-11.2-9.4-22.3-12.7-30c-6.4-14.8-12.3-40-11.3-56.2c1-16.3,13.8-68.6,20.7-93.7
									c6.9-25.2,23.2-55.7,26.6-62.2c3.5-6.4,2-8.9-6.4-3.9c-8.4,4.9-15.3,7.4-34.5,10.9c-19.2,3.5-44.9,8.9-50.8,9.9
									c-5.9,1-10.9,6.4-16.8,18.7c-5.9,12.3-13.3,35-22.7,56.2c-9.4,21.2-13.3,40.9-17.8,51.3c-4.4,10.4-6.9,21.7-7.4,31.6
									C97.5,553.1,93,561,87.1,566s-3.5,10.4-1,18.3c2.5,7.9-3.5,10.4-10.4,15.8c-6.9,5.4,6.9,13.3,5.9,18.7
									c-1,5.4,2,8.4,6.4,15.8c4.4,7.4,3.9,11.8,11.8,21.2c7.9,9.4,15.3,8.9,27.6,20.2c12.3,11.3,22.7,19.2,32.1,23.7
									c9.4,4.4-0.5,3,2,8.4c2.5,5.4,3.9,4.4,4.4,11.3s-0.5,8.4-3.5,20.2c-3,11.8-3,29.6-2,48.3c1,18.7,2,34-0.5,48.3
									c-2.5,14.3,2,39.5-0.5,49.3c-2.5,9.9,1,14.3,3.9,22.2c0,0,6.9,4.9,14.8,4.4c7.9-0.5,42.4-1.5,56.2-3.9
									c13.8-2.5,9.9-3.9,19.7-19.7c9.1-14.5,9.8-29.7,9.2-38.1c2.5,12.2,6.5,30.6,14.5,43.5c8.9,14.3,26.6,20.7,53.8,21.2
									c27.1,0.5,102.6-5.4,113.9-7.9c11.3-2.5,11.8-3.9,11.8-10.9c0-6.9,0-7.9,0.5-21.7s3.9-26.6,3.9-43.9
									c0-17.3-5.9-39.5-6.4-57.2c-0.5-17.8-7.9-46.9-10.9-57.2c-3-10.4-3.5-30.1,5.9-32.1s35-11.8,45.4-15.3
									c14.5-4.8,14.8-9.4,19.7-15.8c4.9-6.4,6.9-7.9,6.9-15.3s3.5-23.2,5.9-30.1C531.1,601,531.1,596.5,528.6,589.6z M99,572.9
									c-9.4,1-17.8-2-12.3-3.5c5.4-1.5,9.4-2,17.8-3c8.4-1,10.9,0,14.3,4.4c3.5,4.4,3.5,9.4,3.5,9.4
									C113.8,575.8,108.3,571.9,99,572.9z M134,571.4c-4.9-14.7-9.4-14.3-11.8-24.2c-2.5-9.9-1-10.4-4.4-16.3s-3.9-9.4,1.5-4.4
									c5.4,4.9,6.9,6.9,8.4,13.8c1.5,6.9,5.9,6.9,5.9,14.3S134.5,572.9,134,571.4z M151.7,593.1c-4.9-3-6.4-2.5-3-8.4
									s3.9-14.3-1.5-24.2s-5.4-16.8-2.5-26.1c3-9.4,3-30.1,3-44.4c0-14.3,3-33,3.5-41.9s3,57.2,0,75c-3,17.8-5.9,26.6-1,32.6
									c4.9,5.9,10.4,11.8,6.9,20.2c-3.5,8.4-3.5,13.8,1,15.3c4.4,1.5,5.9,5.9,6.4,8.9c0.5,3,4.4,7.4,9.9,9.4
									c5.4,2,7.4,4.9,8.4,8.9c1,3.9-4.9-1-4.9-1c-9.4-7.9-8.4-8.9-15.8-11.3C154.7,603.4,156.7,596,151.7,593.1z M473.8,611.3
									c-9.4-8.9-17.3-12.3-22.7-14.8c0,0-3-6.4,0-3.5c3,3,8.4,3,17.8,8.9s11.8,9.9,17.8,19.2S483.2,620.2,473.8,611.3z M484.2,601
									c-5.4-3.5-8.9-7.4-14.8-7.9c-5.9-0.5-10.4-1.5-14.8-3.9c-4.4-2.5,7.4-2.5,7.4-2.5c8.4,0.5,15.8,0,22.2,7.4
									C490.6,601.5,489.6,604.4,484.2,601z M511.8,594.6c-3.5,6.4-4.9,0.5-12.8-4.9s-13.8-9.4-23.2-8.4c-9.4,1-12.3-2-19.2,2
									c-4.6,2.6-7,1.8-9.2,1.5c-2.9,1.9-5.6,3.2-8.5,4c-5.4,1.5-2.5,3,2,5.9c4.4,3,3,7.9,3,7.9c-7.4-1-17.8-1-22.7,1
									s-21.2-2.5-25.2,1.5s-15.3,3.9-20.2,7.4c-3.7,2.6-13.1,2.4-20.6,3.6c-6.3,2.2-10.1,3.5-6.5,1.8c1.8-0.8,4.1-1.4,6.5-1.8
									c6.5-2.3,15.6-5.6,21.6-7.6c11.8-3.9,19.2-7.9,28.6-8.4s10.9-3.5,15.8-4.4c4.9-1,6.4-1.5,2-6.4c-4.4-4.9-10.4-6.9-6.4-9.9
									c1.4-1,3.2-2,5.2-2.8c-2.8-5.1-9-9.4-5.2-20.9c4.9-14.8-1-28.1,3-35c3.9-6.9,0-8.4,0.5-22.2c0.5-13.8,2.5-15.8,3-10.4
									s6.4,8.9,3.5,10.9s-3.5,3.5-1.5,10.4c2,6.9,3.5,10.4,0.5,13.3c-3,3-3.9,4.4-3,13.3c1,8.9-5.9,20.7,0.5,30.6
									c3.7,5.7,7.2,7.8,8.6,9.6c0.8,0.3,1.5,0.7,2.2,1.2c5.4,3.9,2,2,10.9,1c8.9-1,17.8-5.9,10.9,0c-1.1,0.9-2.1,1.8-3.1,2.6
									c6-2.3,12-4.1,21.3-4.1c12.3,0,21.2,3.5,28.6,7.9S515.3,588.2,511.8,594.6z"/>
							</g>
						</g>
						<g>
							<path class="st8" d="M209.8,640.4c3-2.6,3-4.6,1-6.9c-2-2.3,1.6-4.3,4.3-8.5c2.6-4.3,5.7-5.1,5.9-9.5c0.2-4.6,0.1-4,0.7-5.8
								c0.4-1.3-2.5,5.8,1,10.9c1.6,2.3,12.8,6.8,16.4,10.1c3.6,3.3,4.3,2.3,8.2,4.6c3.9,2.3,5.3,2.6,0.3,5.3
								c-4.9,2.6-8.2,2.6-13.8,1.6c-5.6-1-13.5-1-18.1-0.3C211.1,642.4,209.8,640.4,209.8,640.4z"/>
							<path class="st8" d="M197.9,659.2c4.9-0.3,15.8-2.3,20.4-1.3c4.6,1,7.6,2,12.8,3c5.3,1,3.6,3,5.3,3.6
								c1.6,0.7-0.3,2.3-6.2,3.9c-5.9,1.6-12.8,2.3-16.8,4.6c-3.9,2.3-6.2,1.3-10.5,2.3c-4.3,1-4.6,0.3-6.2-0.7c-1.6-1,2-2.3,2-6.2
								S197.9,659.2,197.9,659.2z"/>
							<path class="st8" d="M194.3,692.4c4.9-0.7,15.8-3,23-5.3c7.2-2.3,11.5-3.9,14.5-4.9c3-1-1.3,4.3-7.6,7.9
								c-6.2,3.6-10.5,2.3-14.8,4.3c-4.3,2-7.6,3-11.2,1.6C194.6,694.7,194.3,692.4,194.3,692.4z"/>
							<path class="st8" d="M182,651.3c0.2,4.6-0.7,10.5,2.4,11.8c3.1,1.3,4.5,2.3,6.2-1.6c1.7-3.9,1.9-3.9,4.3-3
								c2.4,1,0.5,2-1.2,5.6c-1.7,3.6-1.9,7.9-5.9,8.2c-4,0.3-5.7-0.3-6.9-5.3c-1.2-4.9-0.5-5.3-0.9-10.5
								C179.4,651.3,182,651.3,182,651.3z"/>
							<path class="st8" d="M207.5,630.2c-6.2-0.3-15.1-1.6-10.9-4.9c4.3-3.3,8.2-6.6,12.5-6.6c4.3,0,6.9-0.7,5.3,3
								c-1.6,3.6-1.3,5.9-2.6,6.9C210.4,629.6,207.5,630.2,207.5,630.2z"/>
						</g>
						<g>
							<path class="st9" d="M293,690.1c-7.2,0-14.5,2-24.3,3.9c-9.9,2-21.4,4.9-28.3,8.2c-6.9,3.3-15.1,8.2-21,8.6
								c-5.9,0.3-5.6,5.3-12.8,4.3c-7.2-1-11.5-2.6-7.6-3.6c3.9-1,12.2-3.6,18.1-4.9c5.9-1.3,5.9-1.3,5.9-1.3s16.4-5.3,20.4-8.9
								c3.9-3.6,3.3-2.3,11.5-3.3c8.2-1,19.4-2.6,27.6-3.6C290.7,688.4,295.6,690.1,293,690.1z"/>
							<path class="st9" d="M290.7,671c-5.3,0.7-22.4,4.3-30.3,5.6c-7.9,1.3-13.2,3.3-15.5,4.6c-2.3,1.3-6.6,1-8.2-2.6
								c-1.6-3.6-2.6-3.9-3.6-5.3c-1-1.3,3.6-5.6,4.9-2.3c1.3,3.3,3.3,6.9,7.6,5.6c4.3-1.3,19.4-4.6,26.6-5.6c7.2-1,10.9-2,18.1-3.3
								c7.2-1.3,13.8-2.3,10.2-0.7C296.9,668.7,290.7,671,290.7,671z"/>
							<path class="st9" d="M163.4,682.2c-1.3-9.2-2.3-21.4-0.7-28.9c1.6-7.6,5.6-13.8,10.9-16.8c5.3-3,7.2-1.3,3.9,5.3
								c-3.3,6.6-6.2,8.6-3.9,14.8c2.3,6.2,2,9.2,5.9,11.2c3.9,2,4.6,7.6-0.3,5.3c-4.9-2.3-5.6-5.3-8.2-2.3c-2.6,3-3.3,2.6-3.3,7.9
								C167.7,683.8,163.4,682.2,163.4,682.2z"/>
							<path class="st9" d="M279.8,636.2c-5.9-1.6-10.5-6.2-16.1-4.9c-5.6,1.3-8.5,2.3-13.5,1.3c-4.9-1-5.6,3-0.7,3.9
								c4.9,1,13.2-2.3,19.4,1c6.2,3.3,6.9,4.6,11.8,2.6C285.7,638.1,279.8,636.2,279.8,636.2z"/>
						</g>
						<g>
							<g>
								<g>
									<path class="st6" d="M180.7,311.1l-0.5,0.2c-0.3,0.8-2.8,6.5-5.5,11c-2.9,4.9-1.5,9.7-1.5,9.7c0.1-0.2,0.3-0.4,0.4-0.6
										c-0.2-1.1-0.9-5.2,1.6-9.3C178,317.3,180.7,311.1,180.7,311.1z M267.1,166c6.2-1.2,9.4,0.9,19.4-2.8
										c10-3.7,17.9-7.6,30.6-5.6c6.6,0.6,19,1.7,28.8,10.4c9.7,8.7,10.1,8.6,14.8,3.4c0.2-0.2,0.4-0.5,0.6-0.7
										c0,0-0.1,0.1-0.1,0.1c-4.7,5.2-5.1,5.4-14.8-3.4c-9.7-8.7-22.2-9.8-28.9-10.4c-12.7-2-20.7,2-30.8,5.6
										c-10,3.7-13.2,1.6-19.5,2.8c-16.7,4.3-25.9,24.4-25.9,24.4c0.1,0.3,0.1,0.5,0.1,0.5S250.5,170.4,267.1,166z M174.3,314.2
										c0-0.8-0.2-7.7,3.2-14.6c3.6-7.3-0.3-19.1,6-29.6c6.2-10.5,17.6-16.3,17.6-16.3s-11.8-17.5-10.8-42.7
										c1-25.3,4.6-46.6,8.5-58.9c3.9-12.3,5.6-14.7,5.8-20.5c0.2-5.8,6.9-4.5,11.4,4.3c4.6,8.8,8.7,25.3,14.1,31.3
										c4.6,5.1,7.5,8.5,8.4,11.3c-0.7-2.9-3.7-6.4-8.6-11.9c-5.4-6.1-9.6-22.6-14.2-31.5c-4.6-8.9-11.3-10.2-11.5-4.3
										c-0.2,5.9-1.9,8.2-5.9,20.6c-4,12.4-7.5,33.8-8.6,59.2c-1,25.4,10.9,42.9,10.9,42.9s-11.4,5.9-17.7,16.4
										c-6.3,10.6-2.4,22.4-6,29.8c-3.6,7.4-3.2,14.8-3.2,14.8L174.3,314.2z M418.7,329.6c-4.8,0.6-27.7,15.4-40.9,13.8
										c-13.2-1.6-21.2-9.6-29.6-8.8c-8.5,0.9-17,19.6-28.7,33.8c-11.6,14.2-32.1,16-44.5-4.6c-12.3-20.6-16.5-34.1-33.1-25.9
										c-16.6,8.2-33.4,6.2-44.1-1.6c-8.8-6.4-17.5-9.3-22-6.8c4.7-2,13,0.9,21.6,7.1c10.7,7.8,27.6,9.8,44.3,1.6
										c16.7-8.2,20.9,5.3,33.3,26c12.4,20.7,33,18.9,44.7,4.6c11.7-14.3,20.3-33.1,28.8-34c8.5-0.9,16.6,7.2,29.8,8.8
										c13.2,1.6,36.2-13.3,41.1-13.9c0.9-0.1,1.8,0,2.6,0.2C421.1,329.7,420,329.5,418.7,329.6z M420.3,316.2
										C420.3,316.1,420.2,316.1,420.3,316.2c-3.2-3.1,3.8,6.7,4.8,12.3c0.4,2.1,0.2,2.7-0.3,2.7c1.2,0.5,1.6,0.4,1.1-2.4
										C425.1,324.5,421,317.9,420.3,316.2z M419.1,290.7c0.1-1.9,1.1-7.1,0.4-12.4c-0.7-5.3-16.2-21.8-18.8-24.1
										c-2.7-2.3-6.5-1.7,0.6-5.4c7.1-3.6,10-25.7,8.5-52.2c-1.5-26.5-11-49.5-13.4-59c-2.4-9.5-1-14.5-4.4-14.6
										c-2.2-0.1-3.9,1.2-6.7,5c2.4-3.1,4-4.2,6.1-4.2c3.4,0.1,2,5,4.4,14.5c2.4,9.5,11.8,32.4,13.3,58.7
										c1.5,26.3-1.4,48.3-8.5,51.9c-7.1,3.6-3.2,3-0.6,5.3c2.6,2.3,18,18.7,18.7,24c0.7,5.3-0.3,10.5-0.4,12.4
										c-0.1,1.9,9.1,23.3,7.9,26.5c-0.5,1.3-1.1,1.9-1.8,1.9c1.1,0.5,1.9,0.1,2.6-1.7C428.2,314.1,418.9,292.6,419.1,290.7z"/>
								</g>
							</g>
							<path class="st6" d="M199.2,252.2c0,0-11.1-17-10.3-44.6c0.8-27.6,5-45.8,9.2-58.8c4.2-13,3.9-14.1,5.3-17.9
								c1.4-3.7,4.7-6.1,8.9,2.6c4.2,8.6,7,19.9,3.1,23c-3.9,3.2-10.3,7.8-12.3,11.8c-1.9,4-2.2,5.2-1.7,7.5
								c0.6,2.3,6.7,0.9,6.4,4.3c-0.3,3.5,8.4,3.5,5.8,7.5c-2.5,4-5.3,7.8-1.1,8.6c4.2,0.9,10.6,0.3,6.4,2.3c-4.2,2,4.5,1.7-1.9,4
								c-6.4,2.3-3.1,4.3-6.4,6.3c-3.3,2-5.6,4-2.2,6.6c3.3,2.6,2.5,4.3,7-0.3c4.5-4.6,6.8-4.9,2.4,1.2c0,0-4.3,2.9-6,7.2
								c-1.7,4.3-2.2,3.2-3.9,8.9c-1.7,5.8,0,4-4.5-0.3c-4.5-4.3-5.6-8.4-6.4-14.1c-0.8-5.8-1.1-10.9,0.8-14.7
								c1.9-3.7,3.3-4.3-0.3-4c-3.6,0.3-2.2-1.7,0.8-4.3c3.1-2.6,2.5-6.6,2-10.9c-0.6-4.3,1.4-6.9-1.7-7.2
								c-3.1-0.3-0.3-4.9,1.7-10.1c1.9-5.2,3.9-9.5,4.2-15.6c0.3-6,0-11.8,0-11.8s-12.8,34.6-13.1,57.6c-0.3,23,1.4,34.6,3.9,42.1
								c2.5,7.5,4.7,10.1,5.6,13C201.7,255,199.2,252.2,199.2,252.2z"/>
							<path class="st6" d="M377.4,209.1c-1.1-6.4,0.8-13,7.8-11.6c7,1.4,5.6-1.2,4.7-7.8c-0.8-6.7-0.3-7.5-5-9.3
								c-4.7-1.7-3.6-2.6-4.2-7.8c-0.6-5.2-0.8-9.3,3.1-9.3c3.9,0,3.6-0.9,1.7-6.9c-1.9-6.1-0.8-14.7,0.6-17.4
								c1.4-2.6,2-0.6,5.3,3.5c3.3,4.1,8.4,11,7.2,14.8c-1.1,3.8,3.9,7.5,3.1,12.7c-0.8,5.2-3.1,9-1.1,12.7
								c1.9,3.8,4.7,15.6,4.5,22.8c-0.3,7.2-1.1,20.2-4.5,26.6c-3.3,6.4-5.3,5.2-5.6,11.3c-0.3,6.1-0.6,7.8-2.2,4.3
								c-1.7-3.5-3.3-4.3-2.2-11c1.1-6.7,0.3-11.3-3.6-12.7c-3.9-1.4-3.1-13.9-6.1-13.3C377.7,211.4,377.4,209.1,377.4,209.1z"/>
							<path class="st6" d="M362.7,200.9c-3.2-6.7-6.2-10.8-9.2-12.7c-3-1.9-1.8-3.6,2.8-7.4c4.6-3.8,11.7-15.3,14.5-24.9
								c2.8-9.6,9.4-25.6,14.5-31.8c0,0,6.7-7.7,5.7-0.5c-0.9,7.2-10.3,15.1-11.9,29.9c-1.6,14.8-7.6,34.2-10.6,41.4
								C365.5,202.1,362.7,200.9,362.7,200.9z"/>
							<path class="st10" d="M394.1,122.7c0.6,3.3,3.2,16.6,6.1,22.6c2.9,6,9.6,31,10.2,48.2c0.6,17.2-0.3,35-2,41.3
								c-1.7,6.3-4.7,14.8-7.3,16.9c-2.6,2.1-3.1-0.9-0.1-5.1c0,0,3.9-8.1,5.7-17.8c1.7-9.6,2.3-28.6,1.5-37.7
								c-0.9-9-3.5-24.7-6.7-34.1c-3.2-9.3-6.7-17.2-7.9-21.4c-1.2-4.2-2.3-8.4-2-10.8C391.8,122.4,394.1,122.7,394.1,122.7z"/>
							
								<linearGradient id="SVGID_00000002374121581056636760000015626046742671743665_" gradientUnits="userSpaceOnUse" x1="171.2753" y1="312.7987" x2="186.0757" y2="312.7987">
								<stop  offset="0" style="stop-color:#FFFFFF"/>
								<stop  offset="0.1416" style="stop-color:#FAFAFA"/>
								<stop  offset="0.3075" style="stop-color:#ECECED"/>
								<stop  offset="0.4856" style="stop-color:#D4D5D6"/>
								<stop  offset="0.6723" style="stop-color:#B3B5B6"/>
								<stop  offset="0.8637" style="stop-color:#8A8D8E"/>
								<stop  offset="1" style="stop-color:#676B6D"/>
							</linearGradient>
							<path style="fill:url(#SVGID_00000002374121581056636760000015626046742671743665_);" d="M184.8,311.2
								c-4,2.6-5.6,4.9-6.7,8.4c-1.1,3.5-1.9,1.4-1.9-2.6c0-4.1-1.4-4.3-2.5-0.9c-1.1,3.5-3.9-0.9-1.4-6.6c2.5-5.8,6.6-6.4,6.4-3.8
								C178.1,312.4,189.8,308,184.8,311.2z"/>
							<path class="st6" d="M228.3,201.4c1.9-4.8,2.3-8.7-1-12.6c-3.3-3.9-6.9-12.6-6.7-22.3c0.2-9.8-4.8-20.6-7.9-27.8
								c-3.1-7.2-2.7-8.2-5-8.5c-2.3-0.2,1.5-5,5-0.2c3.6,4.8,8.8,13.7,12.1,21c3.3,7.4,4.2,13.9,8.8,19.7c4.6,5.9,4.2,8.7,7.1,8.7
								c2.9,0,2.5,2.6-0.2,4.1c-2.7,1.5-5.2,0.9-6.5,5.4c-1.3,4.6-1.3,8.2-3.1,11.1C228.9,202.9,228.3,201.4,228.3,201.4z"/>
							<path class="st6" d="M408.3,326.3c6.5-1.3,10.4,1.3,14.6,1.3c4.2,0,5.2-0.4,0.2,2.4c-5,2.8-10.7,0.4-15,3.7
								c-4.4,3.3-14.4,12.2-26.3,11.5c-11.9-0.6-17.1-4.8-24.4-6.9c-7.3-2.2-11.1-3.3-14.6-1.1c-3.5,2.2,1.9-3,9.6-4.1
								c7.7-1.1,14,3.3,24.2,4.8c10.2,1.5,20.9-3,15.5-4.1c-5.4-1.1-2.1-2.2,4.8-2.6c6.9-0.4,11.7-1.5,9.4-2.8
								C403.9,327,408.3,326.3,408.3,326.3z"/>
							<path class="st6" d="M248.5,338.5c-6.5,1.1-18.6,8.5-29,8.2c-10.4-0.2-16-3.5-20.3-4.6c-4.3-1.1-4.3-1.3-1.1-2.2
								c3.2-0.9-13-2-8.2-3.7c4.8-1.7-8.9-0.2-10.8-2c-1.9-1.7-2.8-2.4-6.7-1.3c-3.9,1.1-1.3-0.9,2.4-3.5c3.7-2.6,9.7-2.8,16-2.6
								c6.3,0.2,11.7,1.5,15.8,6.5c4.1,5,8.9,6.5,18.4,5.6c9.5-0.9,16-1.1,20.1-2.4c4.1-1.3,10.2-2,10.6,0.6
								C256.1,340,248.5,338.5,248.5,338.5z"/>
							<path class="st12" d="M326.5,288.6c-3.3-5-2.4-15.2,3.9-22.3c6.3-7.2,20.1-8.5,29.8-0.2c9.6,8.2,7.4,13,2.2,18.2
								c-5.9,5.9-17.5,8.9-24.3,8.5C331.3,292.3,326.5,288.6,326.5,288.6z"/>
							<g>
								<g>
									<path class="st8" d="M275.7,279.8c-4.5-8.1-12.8-16.1-22.6-15.2c-7.4,0.7-13.4,4.4-16,11.2c0,0.1,0.7-1.5,0.8-2
										c-1.4,3.6,0.4-0.2,1.4-1.2c1.3-1.4,2.8-2.5,4.4-3.3c4.8-2.5,10.9-3.3,16.1-1.4c6.4,2.4,11.7,8.3,15,14.2
										C274.5,281.6,275.9,280.2,275.7,279.8L275.7,279.8z"/>
								</g>
							</g>
							<g>
								<g>
									<path class="st8" d="M233.2,271.4c3.7,7.6,10,16,18.3,18.6c8.5,2.7,20.7-2,23.7-10.9c0.2-0.7-0.9-1.8-0.6-2.4
										c-3,8.9-15.3,13.6-23.7,10.9c-8.3-2.7-14.6-11.1-18.3-18.6C232.9,269.7,232.8,270.6,233.2,271.4L233.2,271.4z"/>
								</g>
							</g>
							<g>
								<g>
									<path class="st6" d="M317.3,273.1c5.7,8.5,14.3,15.7,24.8,16.1c9.3,0.4,21.1-4,23.1-14.4c0,0.2-4.9-0.5-5-0.2
										c-1.5,7.5-11.7,15.2-18,14.3c-8.1-1.2-15.5-9.2-19.9-15.6C321.7,272.4,317.8,273.8,317.3,273.1L317.3,273.1z"/>
								</g>
							</g>
							<g>
								<g>
									<path class="st8" d="M322.3,283.4c3.4-6.8,9.5-13.3,16.7-16c6.7-2.6,19.7-3,24.5,3.9c-0.5-0.7-0.4-1.7-0.9-2.4
										c-4.8-6.9-17.8-6.4-24.5-3.9c-7.2,2.7-13.3,9.2-16.7,16C321.1,281.5,322.5,282.9,322.3,283.4L322.3,283.4z"/>
								</g>
							</g>
							<g>
								<g>
									<path class="st6" d="M393.8,249.5c-0.8-0.5-1.4-0.8-2-1.1c-1.2-0.6-2.3-1.1-3.1-1.6c-1.6-1-3.1-2.6-3.7-4.1
										c-0.3-0.7-0.3-1.3-0.2-1.3c0,0.1-0.1,0,0.9-0.4c0.8-0.3,1.7-0.4,2.9-0.5c0.7-0.2,1.1,0.1,3.1-0.7c0.5-0.2,1.5-0.9,1.9-2
										c0.5-1.3,0.3-1.8,0.2-2.6c-0.3-0.9-0.6-1.5-0.8-1.9c-0.7-1.1-1.3-2.3-2.4-3.6c-1.1-1.3-2.6-2.4-3.9-3.2
										c-2.2-1.3-4.8-2.1-6-2.7c-0.1-0.1-0.3-0.1-0.4-0.2c0.1-0.4-0.1-1,0-1.8c0.3-4.5-0.1-9.8-2.3-14.6c-0.3-0.6-0.6-1.3-1.1-2
										c-0.7-0.7-0.5-1.6-3.6-2.8c-1.1-0.3-2.3,0-3.2,0.6c-1.5-3.4-3.8-6-5.6-8.4l-0.1-0.1c0,0,0,0,0.1,0.1
										c1.7,2.4,3.7,4.9,5.2,8.3c0,0.1,0.1,0.2,0.1,0.3c-0.7,0.4-1.1,1-1.2,1.3c-0.2,0.3-0.5,1-0.6,1.1l-0.1,0.3
										c-0.1,0.3-0.3,0.6-0.5,1c0,0,0,0,0,0c-0.1-0.4-0.2-0.8-0.4-1.2c0,0,0,0,0-0.1c-0.1-0.4-0.3-0.8-0.5-1.2c0,0,0-0.1,0-0.1
										c-0.4-0.8-0.8-1.6-1.3-2.4c0,0-0.1-0.1-0.1-0.1c-0.3-0.4-0.5-0.8-0.8-1.2c0,0,0,0,0-0.1c-0.3-0.4-0.6-0.8-0.9-1.2
										c0,0-0.1-0.1-0.1-0.1c-0.1-0.2-0.3-0.3-0.4-0.5c0.4,8.7-2.1,18.8-10.6,27.9c-17.2,18.6-23.2,29.7-25.6,36.1
										c0,0,2.2,7-2.4-2.2c-4.6-9.2-7.1,7-11.7,14.6c-4.6,7.7-0.9,2-6.8-5.2c-6-7.2-15.9-15.5-17.6-26
										c-1.8-10.5-1.3-11.6-10.6,1.1c-9.3,12.7-3.3,6.8-8.8-1.1c-5.5-7.9-5.7-11.1-4.2-20.1c1.5-9-5.7-6.8-12.4-1.5
										c-6.6,5.2-7.5,13.3-9.9,2.4c-2.4-10.9,5.3-19.7-0.7-14.4c-2.3,2-4.2,2.8-5.3,2.3c-0.3,0.4-0.5,0.8-0.8,1.2
										c-0.1,0.1-0.1,0.2-0.2,0.3c-0.1,0.2-0.3,0.5-0.4,0.8c-0.1,0.2-0.2,0.3-0.2,0.5c-0.1,0.2-0.2,0.4-0.3,0.7
										c-0.1,0.2-0.2,0.4-0.3,0.7c-0.1,0.2-0.2,0.3-0.2,0.5c-0.2,0.4-0.4,0.8-0.6,1.3c-3.2,7.5-5.2,8.8-12.4,10.2
										c-0.4,0.1-0.8,0.2-1.2,0.3c-0.1,0-0.2,0.1-0.3,0.1c-0.4,0.1-0.7,0.3-1.1,0.4c-0.1,0-0.1,0.1-0.2,0.1
										c-0.3,0.1-0.6,0.3-0.9,0.5c-0.1,0.1-0.2,0.1-0.3,0.2c-0.3,0.2-0.6,0.4-0.9,0.6c-0.1,0.1-0.2,0.2-0.3,0.2
										c-0.2,0.2-0.4,0.3-0.6,0.5c-0.1,0.1-0.2,0.2-0.4,0.3c-0.2,0.2-0.5,0.5-0.7,0.7c-0.1,0.1-0.3,0.3-0.4,0.5
										c-0.1,0.1-0.2,0.3-0.3,0.4c-0.5,0.6-1,1.3-1.4,2c0,0.1-0.1,0.2-0.1,0.2c-0.3,0.5-0.6,1.1-0.9,1.6c0.5-1,1-2,1.6-2.9
										c1.4-2.1,3.1-3.9,5.2-5c2.1-1.2,4.4-1.4,6.3-2.1c4-1.2,5.7-4.3,6.6-6.9c0,0-0.2,0.2-1,1.2c-0.9,1-1.9,2.8-5.3,3.8
										c-1.7,0.7-4.1,0.5-7.9,2.2c-3.5,1.7-6.4,5.2-8.3,9.3c-2.2,4-3,9.7-4.8,14.2c-1.6,4.3-7.9,7.3-12.6,14.1c0,0-0.7,1-1.2,2.9
										c-0.6,1.9-0.7,4.8-0.1,7.7c0.5,2.9,1.6,5.9-0.6,7.5c-3.1,2.3-5,5.7-6.6,8.9c-0.8,1.6-1.5,3.3-2.1,4.9
										c-0.3,0.8-0.6,1.6-0.8,2.5c-0.1,0.4-0.2,0.8-0.2,1.3c0.1,0.3-0.2,0.4,0.3,1.2c0.7,0.5,1.1,0.1,1.3,0.1
										c0.1-0.1,0.3-0.2,0.3-0.3c1.8-2.6,4.1-3.8,6-4.8c3.8-1.9,5.6-2.4,3.3-1c0,0-0.6,0.5-2.7,2c-1,0.8-2.6,1.8-3.9,3.3
										c-0.4,0.5-0.3,0.5-0.9,1.3c-0.2,0.2-0.3,0.4-0.7,0.8c-0.3,0.2-0.1,0.3-1.3,0.7c-0.2,0.1-0.5,0.1-0.7,0.1
										c-0.4,0-1-0.1-1.5-0.3c-1.1-0.7-1-1-1.3-1.5c-0.4-1.5-0.2-1.5-0.2-2c0-0.3,0.1-0.6,0.1-0.9c0.4-2,0.9-3.7,1.7-5.7
										c-0.1-0.1,3-8.2,5.6-11.5c1.3-1.6,0.9-2.1-2.1,0.7c-1.4,1.4-3.1,3.6-4.8,6.8c-0.9,1.6-1.8,3.5-2.7,5.9
										c-0.2,0.6-0.4,1.2-0.7,2c-0.1,0.4-0.2,0.8-0.3,1.3c-0.1,0.8-0.4,0.7-0.2,3.1c0,0,0.2,1.2,0.6,1.9c0.5,0.8,0.4,1.3,2.4,2.7
										c0.9,0.5,2,0.9,2.9,0.9c1.1,0.1,1,0,1.6-0.1c0.8-0.1,1.7-0.5,2.3-0.9c0.5-0.3,0.8-0.6,1.2-0.9c0.3-0.3,0.4-0.4,0.5-0.6
										c0.3-0.4,0.5-0.6,0.7-0.8l0.1-0.2l0.1-0.1c-0.3-0.2,0.7,0.5-0.7-0.6l0.1,0l0.6,0.4c0.2,0.2,0.2-0.1,0.5-0.3
										c-0.1,0.1,1.3-1.3,4.9-3.1c3.5-1.8,8.5-3.9,12.9-5.7c9-3.5,15.8-6.5,5.6-4.9c0,0-7.3,1.4-7.6,0.7c1.8-0.5,3.5-1.1,5.3-1.6
										c3.3-1,6.6-1.9,9.8-2.8c3.2-0.9,6.5-2,9.7-1.3c3.1,0.7,5.7,3,8.2,5.2c2.6,2.3,5.8,3.7,9.1,4.8c6.4,2.2,13.1,3.4,19.1,6.7
										c3,1.6,5.7,3.6,8,6c2.3,2.4,4.6,5.1,5.3,8.4c0.7,3.5,1.1,7.6,3.1,10.9c1.8,3.4,4.2,6.3,6.4,9.3c0.6,0.7,1.2,1.5,1.8,2.2
										c0.3,0.4,0.6,0.7,1,1.1c0.2,0.2,0.4,0.4,0.8,0.5c0.3,0.4,1.6-0.1,1.5-0.7c0.2-1.8,0-3-0.1-4.3c0.5,0.3,0.9,0.4,1.2,0.4
										c0.2-0.1,0.3-0.3-0.3-0.8c-0.2-0.2-0.6-0.4-0.9-0.5c0-0.2,0-0.3,0-0.5c0.7,0,1.6,0.2,1.9,0.3c0.6,0.2,0.7,0.1,0.6-0.3
										c-0.2-0.7-0.9-2.2-2.1-4.5c0-0.1-0.1-0.2-0.1-0.2c0.1-2.2,0.1-4.4-0.2-6.7c-0.4-3.8-2.1-7.5-3.8-10.6
										c-1.5-3.2-2.5-6.8-1.8-10.2c0.5-3.4,2.9-6.4,3.9-10.4c1-3.8,0.7-8.1-1.1-11.7c-1.5-3-3.7-5.3-5.5-7.7
										c-1-1.2-1.9-2.4-3.1-3.6c-0.3-0.3-0.6-0.6-1.2-0.9c-0.2-0.1-0.6-0.3-1.2-0.3c-0.4,0-0.7,0.1-1,0.3
										c-0.1-0.1-0.2-0.2-0.3-0.3c0,0,0,0,0.1-0.1c1.5-0.9,2.5,0,2.9,0.1c1.7,1.2,2.6,2.4,3.8,3.7c2.1,2.5,4.7,4.9,6.6,8.4
										c1.8,3.4,2.3,7.5,1.9,10.9c-0.3,3.4-1.8,6.6-2.3,8.2c-1.1,3.7-0.3,4.8,0.5,3.4c0,0,0.2-0.9,1.2-2.9c1-1.8,3.8-6.9,3.4-13.1
										c-0.1-3.1-1.1-6.6-2.9-9.6c-2.1-3.3-3.9-4.9-5.9-7.4c-1.1-1.2-1.9-2.3-4.1-4c-0.3-0.2-0.9-0.6-1.3-0.8
										c-0.3-0.2-0.9-0.4-1.4-0.5c-0.4-0.1-1.2-0.2-2.3,0c-1,0.2-1.7,0.6-2.3,1.2c-0.2-0.2-0.4-0.5-0.7-0.7c0,0-0.8-0.7-2.2-1.9
										c-1.7-1.7-4.4-3-7.2-3.8c-2.8-0.8-5.8-1.3-8.5-2c-1.4-0.3-2.7-0.7-3.9-1.2c-0.6-0.2-1.1-0.5-1.5-0.8
										c-0.2-0.1-0.3-0.2-0.3-0.3c0.1,0,0.1,0,0.1,0v0l0-0.2c0-0.3-0.1-0.9-0.3-1.3c-0.3-1-0.8-2-1.2-3c-0.9-1.9-1.2-3.4-0.4-3.1
										c0,0,0-0.1,0-0.3c0,0,0,0,0,0l0.6-0.4c0.1-0.1,0.3-0.2,0.4-0.3c0.4,0.7,1,1.5,1.7,2.3c2.5,2.3,5,2.8,5.8,3.2
										c1,0.4,1.4,0.6,2,1.2c0.3,0.3,0.6,0.7,1,1.2c0.6,0.9,1.2,1.7,1.9,2.6c-0.1,0.1,3.5,3.4,3.6,2.3c0.1-0.6-0.9-2.1-2.9-5.8
										c-0.9-1.7-1.6-3.3-4.1-4.6c-1.1-0.7-3.6-1.1-5.5-3.7c-0.2-0.3-0.4-0.6-0.5-0.9c0.2-0.1,0.3-0.3,0.5-0.4
										c0.6,1.2,1.5,2.3,2.8,2.9c1.7,0.9,3.1,1.2,4.2,1.8c2.4,1.2,3.5,3.6,5.5,6.3c1.9,2.5,3.9,4.9,6.8,6.8c0.8,0.4,1.6,1,3.2,0.9
										c0.8,0,1.8-0.8,2.1-1.5c0.3-0.7,0.4-1.2,0.4-1.8c0-0.6,0-1.1-0.1-1.5c1.8,1.1,3.9,3.3,5.8,5.1c4.3,4.3,8.7,8.5,12.8,12.9
										c2.1,2.2,4.1,4.5,6.2,6.7c1,1.1,2.3,2.4,3.9,3.3c1.6,0.9,3.5,1.2,4.9,1.4c0.2,0,0.3,0.1,0.5,0.1c-0.1,0.2,0,0.6-0.2,1.2
										c-0.4,1.8-0.3,3.4-0.3,5c0.1,3.1,0.3,6-0.1,8.7c-0.4,2.8-1.8,5-3.1,8.2c-1.1,3.1-1.6,6.4-1.4,9.6c0.2,3.2,0.9,6.4,1.8,9.4
										c0.5,1.5,1,2.9,1.7,4.5c0.4,0.8,0.7,1.5,1.3,2.3c0.6,0.7,1.3,1.8,3.3,2c2-0.1,2.8-1.4,3.3-2.1c0.5-0.8,0.9-1.7,1.2-2.5
										c0.6-1.6,0.9-3.2,1.1-4.8c0.5-3.2,0.5-6.2,1-9.1c0.5-4,2-7.6,4.2-10.8c-0.3,0.4-0.5,0.8-0.7,1.2c-1.9,3.2-2.6,6.4-2.9,9.4
										c-0.4,5.9-0.1,11-1.2,14.5c-0.5,1.8-1.1,3.3-2.4,4.6c-1,1-2.3,1.4-2.8,1.5c2.5-0.3,4-1.9,4.8-3c0.9-1.3,1.5-2.6,2-4
										c1-2.7,1.4-6.3,1.7-9.3c0.5-6.5,2.1-11.5,6.8-16.6c0.5-0.6,1.2-1.3,2-2.3c0.7-1,1.5-2,2.2-3.7c0.7-1.6,0.8-4.6-0.4-6.5
										c-1.1-1.9-2.3-2.7-3.2-3.4c-3.6-2.2-5.5-3.2-5.9-4.1c-0.5-0.7-0.7-2.4-0.6-3.4c0.1-1.1,0.3-1.8,0.3-1.8
										c1-6.2,7-12.7,12.6-15.7c5.6-3.3,9.8-2.5,9.7-2.5c3,0.3,5.1,1.7,6.4,2.7c1.3,1,1.9,1.8,2,2.1c0.3,0.7-1.2-0.4-3.4-1.4
										c-2.2-1-4.8-1.4-6.7-1c-2,0.4-3.6,1.3-3.6,1.3c-4.6,4,2.1,1.3,4.8,2.6c1.4,0.4,3.6,2.2,5.6,4.5c1.1,1.2,1.7,2,2.8,3.4
										c1.3,1.5,2.9,2.7,2.9,2.7c1.5,1.2,5.1,2.7,8.5,2.2c3.4-0.5,5-1.9,6.1-2.6c2-1.7,2.7-2.6,3.6-3.5c1.5-1.7,2.4-2.8,3.4-3.8
										c1.8-1.9,3.2-3.1,4.1-3.9c1.8-1.7,1.5-2.2,0-2.2c-3-0.2-9.6,4.2-9.6,4.4c-1.6,1.3-2.9,2.4-4.3,3.3
										c-1.3,0.9-3.1,1.8-4.8,1.6c-0.1,0-0.2,0-0.2-0.1c0.5,0.1,1,0,1.5-0.1c2.4-0.7,3.3-1.9,4.3-2.8c1.9-1.9,3.5-3.6,5.4-5.1
										c3.8-3.2,7.6-4.8,12.7-6.9c1.2-0.6,2.4-1.1,3.7-1.9c0.6-0.4,1.3-0.8,2-1.4c0.6-0.6,1.9-1.5,1.8-4.1
										C395.8,250.5,394.5,250,393.8,249.5z M289.5,287.3C289.5,287.3,289.5,287.2,289.5,287.3c0-0.2,0-0.3,0-0.4
										C289.5,287.1,289.5,287.2,289.5,287.3z M289.5,287.9c0,0,0-0.1,0-0.1c0,0.1,0,0.2,0,0.3
										C289.5,287.9,289.5,287.9,289.5,287.9z M289.2,290.1C289.2,290.1,289.2,290.1,289.2,290.1c0,0,0,0.1,0,0.1
										c0,0.1,0,0.2-0.1,0.3C289.1,290.4,289.2,290.3,289.2,290.1z M278.6,268.4c1.4,0.9,2.3,2.1,3.3,3.3c1.9,2.4,4,4.7,5.6,7.3
										c0.6,1.1,1.1,2.2,1.4,3.4c-0.1-0.3-0.2-0.6-0.3-0.9c0-0.1-0.1-0.2-0.1-0.2c-0.1-0.3-0.2-0.6-0.4-0.9
										c-0.1-0.1-0.1-0.2-0.2-0.3c-0.2-0.4-0.4-0.7-0.6-1.1c0,0,0-0.1,0-0.1c-0.2-0.3-0.4-0.7-0.6-1c-0.1-0.1-0.1-0.2-0.2-0.3
										c-0.3-0.4-0.5-0.7-0.8-1.1c-0.2-0.3-0.4-0.5-0.6-0.8c-0.1-0.1-0.1-0.2-0.2-0.2c-0.2-0.2-0.3-0.4-0.5-0.6
										c-0.2-0.3-0.4-0.6-0.7-0.8c0,0-0.1-0.1-0.1-0.1c-0.2-0.2-0.4-0.4-0.5-0.7c0,0,0-0.1-0.1-0.1c-0.2-0.2-0.4-0.5-0.6-0.7
										c0,0,0-0.1-0.1-0.1c-0.2-0.2-0.3-0.4-0.5-0.6c0,0-0.1-0.1-0.1-0.1c-0.2-0.2-0.3-0.4-0.5-0.6c0,0,0,0,0,0
										c-0.1-0.2-0.3-0.3-0.4-0.5c0,0-0.1-0.1-0.1-0.1c-0.3-0.3-0.6-0.6-0.8-0.9c0,0-0.1-0.1-0.1-0.1c-0.1-0.1-0.2-0.2-0.3-0.3
										c0,0,0,0,0,0c-0.1-0.1-0.2-0.2-0.3-0.3c0,0,0,0-0.1,0c-0.1-0.1-0.2-0.1-0.3-0.2c0,0,0,0-0.1,0c-0.1-0.1-0.2-0.1-0.3-0.2
										c0,0,0,0,0,0c-0.1,0-0.2-0.1-0.2-0.1c0,0,0,0,0,0c-0.1,0-0.2,0-0.2,0h0c0,0-0.1,0-0.1-0.1
										C278.1,268.2,278.4,268.3,278.6,268.4z M275.7,270.1c0.1,0.1,0.2,0.2,0.2,0.3c0,0,0.1,0.1,0.1,0.1c0,0.1,0,0.2,0,0.3
										c-0.1-0.1-0.2-0.2-0.3-0.4C275.7,270.3,275.7,270.2,275.7,270.1z M275.3,271.6c0.1,0.1,0.2,0.2,0.3,0.3
										c0.5,0.5,1.3,1.1,1.5,0.3c0.1-0.4,0.1-0.8,0.1-1.3c0,0,0,0,0,0c0,0,0-0.1,0.1-0.1c0,0,0.1-0.1,0.1-0.1c0,0,0,0,0,0.1
										c0,0.2,0,0.3,0,0.5c0,0,0,0.1,0,0.1c0,0.1,0,0.2,0,0.3c0,0,0,0.1,0,0.1c0,0.1,0,0.1,0,0.2c0,0,0,0.1,0,0.1
										c0,0.1,0,0.1,0,0.2c0,0,0,0.1,0,0.1c0,0,0,0.1,0,0.1c0,0,0,0.1,0,0.1c0,0,0,0.1-0.1,0.1c0,0,0,0,0,0.1c0,0,0,0-0.1,0.1
										c0,0,0,0-0.1,0c0,0-0.1,0-0.1,0c0,0,0,0-0.1,0c0,0-0.1,0-0.1,0c0,0,0,0-0.1,0c0,0-0.1,0-0.1,0c0,0,0,0-0.1,0
										c0,0-0.1,0-0.1-0.1c0,0,0,0-0.1,0c0,0-0.1-0.1-0.1-0.1c0,0,0,0-0.1,0c-0.1,0-0.1-0.1-0.2-0.1c0,0,0,0-0.1-0.1
										c-0.1,0-0.1-0.1-0.2-0.2c0,0,0,0-0.1-0.1c-0.1-0.1-0.1-0.1-0.2-0.2c0,0,0,0,0,0c-0.1-0.1-0.2-0.2-0.3-0.3
										C275.1,271.5,275.2,271.6,275.3,271.6z M266.3,291.3c-7.7,1.6-18.7-1.6-24-5.1c-5.3-3.5-7.4-8.6-7.4-8.6
										c-0.2-5.3,5.5-12.6,14.3-15c8.7-2.4,20.6,3.2,24.4,13.9C277.3,287.2,273.1,289.8,266.3,291.3z M272.5,266.4
										c0,0,0.2,0.2,0.6,0.7c0,0,0,0,0,0.1c-0.1-0.1-0.1-0.2-0.2-0.3c-0.5-0.7-1-1.3-1.5-2C271.7,265.4,272.1,265.9,272.5,266.4z
										 M249.9,254.3L249.9,254.3L249.9,254.3C249.9,254.3,249.9,254.3,249.9,254.3z M248.6,253.1c0.4,0.8,0.3,1.6,0.8,2
										c0.5,0.5,1.2,0.8,1.9,1.1c1.4,0.6,2.9,1,4.3,1.4c2.9,0.8,5.9,1.6,8.7,2.9c2.9,1.1,5.2,3.5,6.9,6c0.5,0.7,1,1.3,1.5,2
										c0,0.1,0,0.2,0,0.3c0,0,0,0,0,0c-0.3-0.4-0.7-0.9-1.1-1.4c-0.1-0.2-0.2-0.3-0.4-0.5c-0.1-0.1-0.1-0.2-0.2-0.3
										c-0.3-0.3-0.6-0.7-0.8-1.1c0,0,0,0,0-0.1c-0.3-0.4-0.6-0.8-0.9-1.2c-5-6.2-20.2-6.4-20.5-9.9c-0.4-3.5-7.9-9.2-2.9-12.4
										c0.4-0.2,0.7-0.5,1.1-0.8c0,0,0.1,0,0.1-0.1c0.3-0.3,0.6-0.5,0.9-0.8c0,0.1,0.1,0.2,0.1,0.4c-0.4,0.4-0.8,0.7-1.2,1
										c-1.3,0.8-2.5,1.8-2.2,3.3C244.9,248,247.3,250.3,248.6,253.1z M247.7,242.7c-1.6,1-2,1.2-2.2,2c0-0.5,0.2-0.8,0.7-1.2
										c0.6-0.4,1.2-0.9,1.9-1.5c0,0.1,0,0.1,0.1,0.2C248.1,242.4,247.9,242.5,247.7,242.7z M251.5,239.2c0-0.1,0-0.2-0.1-0.2
										c0,0,0-0.1,0-0.1c0,0,0,0,0,0c0.1-0.1,0.2-0.2,0.3-0.3c0,0.1,0.1,0.2,0.1,0.4C251.8,239,251.7,239.1,251.5,239.2z
										 M253.3,239.9c-0.2-0.7-0.3-1.3-0.6-1.9c-0.5-1.9-1.7-0.4-2.7,0.7c-0.2,0.2-0.4,0.4-0.6,0.6c-0.2,0.1-0.6,0.3-0.9,0.4
										c0.2-0.2,0.3-0.3,0.5-0.5c0,0,0,0,0,0c0.3-0.4,0.6-0.7,0.9-1c0.1-0.1,0.2-0.2,0.3-0.3c0,0,0.1-0.1,0.1-0.1
										c0.1-0.1,0.2-0.2,0.3-0.3c0,0,0,0,0.1-0.1c0.1-0.1,0.2-0.2,0.3-0.3c0,0,0.1,0,0.1-0.1c0.1-0.1,0.2-0.1,0.3-0.2c0,0,0,0,0,0
										c0.1-0.1,0.2-0.1,0.3-0.1c0,0,0,0,0.1,0c0.1,0,0.2,0,0.3,0c0,0,0,0,0,0c0.1,0,0.1,0,0.2,0.1c0,0,0,0,0,0
										c0.1,0,0.2,0.1,0.2,0.2c0,0,0,0,0,0c0.1,0.1,0.1,0.2,0.2,0.3c0,0,0,0,0,0.1c0.1,0.1,0.1,0.3,0.2,0.4c0,0,0,0.1,0,0.1
										c0.1,0.1,0.1,0.3,0.2,0.5c0,0,0,0,0,0.1c0.1,0.2,0.1,0.4,0.2,0.7c0,0.1,0,0.1,0,0.2c0.1,0.3,0.1,0.5,0.2,0.8
										c0,0.2,0.1,0.4,0.1,0.6C253.7,240.4,253.5,240.2,253.3,239.9z M298.5,275.4c-4.1-4.5-8.5-8.7-12.8-13
										c-2.2-2.1-4.3-4.4-6.7-6.1c-0.6-0.4-1.3-0.8-1.7-0.8c-0.3-0.1-0.5,0.7-0.4,1.4c0,0.7,0.2,1.6,0,2.4c-0.1,1-1.6,1.7-2.3,1.2
										c-3.2-1.2-5.1-3.7-7.1-6c-2-2.4-3.2-5.3-5.6-7.1c-2.1-1.9-6.1-1.7-7.7-5c-0.1-0.1-0.1-0.2-0.1-0.3c0,0,0,0,0,0
										c0.1-0.1,0.2-0.2,0.3-0.2c0.1,0.3,0.2,0.5,0.4,0.8c0,0,0,0,0,0.1c0.1,0.2,0.3,0.4,0.4,0.6c0,0,0,0,0.1,0.1
										c0.1,0.2,0.3,0.3,0.5,0.5c0,0,0,0,0.1,0.1c0.2,0.1,0.3,0.3,0.5,0.4c0,0,0,0,0.1,0c0.2,0.1,0.4,0.2,0.6,0.3c0,0,0,0,0,0
										c0.6,0.3,1.4,0.6,2.1,0.9c0.2,0.1,0.4,0.2,0.6,0.2c0,0,0.1,0,0.1,0.1c0.2,0.1,0.4,0.2,0.7,0.3c0,0,0.1,0,0.1,0
										c0.2,0.1,0.5,0.2,0.7,0.4c0,0,0,0,0,0c0.2,0.1,0.5,0.3,0.7,0.5c0,0,0.1,0,0.1,0.1c0.2,0.2,0.5,0.3,0.7,0.5
										c0,0,0.1,0.1,0.1,0.1c0.2,0.2,0.5,0.4,0.7,0.7c0,0,0.1,0.1,0.1,0.1c0.2,0.3,0.5,0.5,0.7,0.8c0,0,0.1,0.1,0.1,0.1
										c0.2,0.3,0.5,0.7,0.7,1.1c4.6,7.4,12.1,13.4,11.4,6.9c-0.7-6.6,6.5,1.8,13.6,8.7c0.5,0.4,0.9,0.9,1.3,1.3
										c0.1,0.1,0.2,0.2,0.3,0.3c0.3,0.3,0.7,0.7,1,1c0.1,0.1,0.1,0.1,0.2,0.2c0.3,0.3,0.7,0.7,1,1c0,0,0,0,0.1,0.1
										c0.3,0.4,0.7,0.7,1,1c0,0,0,0,0,0c1.7,2,3.4,4.2,5.2,6.4C299.5,276.5,299,275.9,298.5,275.4z M368.3,206.8
										c0.1-0.3,0.3-0.6,0.4-0.8c0.1,0,0.2-1.1,1.4-2c0.5,1.4,0.9,2.8,0.9,4.4c-0.2,0.3-0.3,0.6-0.5,0.9c0,0,0,0,0,0.1
										c-0.2,0.3-0.3,0.5-0.5,0.8c0,0,0,0-0.1,0c0,0,0,0,0.1,0l0,0c0,0,0,0,0,0c-0.1,0.1-0.2,0.2-0.3,0.3c0,0,0,0.1-0.1,0.1
										c-0.1,0.1-0.2,0.2-0.3,0.3c0,0,0,0-0.1,0c-0.1,0.1-0.2,0.1-0.2,0.2c0,0,0,0,0,0c-0.1,0.1-0.2,0.1-0.3,0.1c0,0,0,0-0.1,0
										c-0.1,0-0.2,0-0.2,0c0,0,0,0,0,0c-0.1,0-0.1,0-0.2-0.1c0,0,0,0,0,0c-0.1,0-0.1-0.1-0.2-0.2c0,0,0,0,0,0
										c0-0.1-0.1-0.2-0.1-0.3c0,0,0,0,0-0.1c0-0.1-0.1-0.3-0.1-0.5c0,0,0-0.1,0-0.1c0-0.2,0-0.4,0-0.7c0,0,0,0,0,0
										c0.1,0.2,0.3,0.4,0.4,0.6c-0.1-0.2-0.2-0.4-0.4-0.6c0-0.5,0-1-0.1-1.5C367.9,207.5,368.1,207.2,368.3,206.8z M328.5,293.1
										c1.2,0.8,2.9,1.9,3.2,4c0.1,2-1.1,3.4-2.1,4.6c-4.3,4.4-7.9,9.2-8.9,15.2c-1.4,5.8-0.2,12.2-3.7,18.1
										c-0.4,0.7-1.6,1.5-2.7,1.1c-1-0.4-1.5-1.2-2-1.8c-0.9-1.4-1.4-2.9-1.9-4.3c-1-2.8-1.8-5.7-2.2-8.6c0.1-0.8,0.2-1.6,0.4-2.4
										c0,0,0,0,0,0c0.1,2.9,0.8,5.9,1.8,9c0,0.1,0.1,0.2,0.1,0.3c0.1,0.4,0.3,0.9,0.4,1.3c0.2,0.5,0.4,1.1,0.6,1.6
										c3.4,8.7,6.7,3,7.4-6.1c0.7-9,1.2-14.6,9.3-23c0.2-0.3,0.5-0.5,0.7-0.7c0.1-0.1,0.1-0.2,0.2-0.2c0.1-0.2,0.3-0.3,0.4-0.5
										c0.1-0.1,0.1-0.2,0.2-0.3c0.1-0.1,0.2-0.3,0.3-0.4c0.1-0.1,0.1-0.2,0.2-0.3c0.1-0.1,0.1-0.2,0.2-0.3c0-0.1,0.1-0.2,0.1-0.2
										c0.1-0.1,0.1-0.2,0.1-0.3c0-0.1,0.1-0.2,0.1-0.2c0-0.1,0.1-0.2,0.1-0.3c0-0.1,0-0.1,0.1-0.2c0-0.1,0-0.2,0-0.3
										c0-0.1,0-0.1,0-0.2c0-0.1,0-0.2,0-0.3c0-0.1,0-0.1,0-0.2c0-0.1,0-0.2,0-0.3c0-0.1,0-0.1,0-0.2c0-0.1-0.1-0.2-0.1-0.3
										c0,0,0-0.1-0.1-0.1c0-0.1-0.1-0.2-0.1-0.3c0,0,0-0.1-0.1-0.1c-0.1-0.1-0.1-0.2-0.2-0.3c0,0,0,0,0,0
										c-1.7-2.2-6.3-3.5-8.3-6.7c0.1-0.4,0.2-0.8,0.2-1.2c0,0,0-0.1,0-0.2c0,0,0,0,0,0.1C323.1,290,325.9,291.5,328.5,293.1z
										 M391.8,257.7c-1.8,1.1-3.7,1.9-5.6,2.7c-3.7,1.4-7,3.2-10.1,5.6c-1.5,1.2-2.9,2.5-4.3,3.9c-1.5,1.3-2.5,3-5.1,4.1
										c-1.4,0.6-3.3-0.1-4-0.9c-0.9-0.8-1.5-1.7-2.2-2.4c-1.2-1.5-2.5-3-3.9-4.3c-2.8-2.7-6.1-4.7-9.8-4.9
										c-3.7-0.3-7.5,1-10.9,2.9c-3.4,1.8-6.5,4.3-9,7.3c-2.6,3.2-4.9,7.2-5.3,11.2c-0.2-0.5-0.4-0.9-0.7-1.4
										c0.1-0.7,0.3-1.4,0.6-2.1c0.1-0.2,0.1-0.3,0.2-0.5c0.1-0.3,0.2-0.6,0.4-0.9c0.1-0.2,0.2-0.4,0.3-0.6
										c0.1-0.3,0.3-0.6,0.4-0.9c0.2-0.4,0.4-0.9,0.7-1.3c0.1-0.3,0.3-0.5,0.5-0.8c0.2-0.3,0.3-0.5,0.5-0.8
										c0.2-0.2,0.3-0.5,0.5-0.7c0.2-0.3,0.5-0.6,0.7-0.9c0.1-0.2,0.3-0.4,0.4-0.6c0.4-0.5,0.8-0.9,1.2-1.4
										c0.2-0.2,0.3-0.3,0.5-0.5c0.3-0.3,0.6-0.7,1-1c0.2-0.2,0.3-0.3,0.5-0.5c0.4-0.4,0.9-0.8,1.3-1.2c0.1-0.1,0.2-0.2,0.3-0.2
										c0.5-0.4,1.1-0.9,1.7-1.3c0.2-0.1,0.3-0.2,0.5-0.4c0.5-0.3,0.9-0.6,1.4-0.9c0.2-0.1,0.4-0.2,0.6-0.3c0.7-0.4,1.3-0.8,2-1.1
										c12.5-6.2,19.6,1.2,25.2,8.2c5.6,7,6.4-4.7,22-11.3c15.6-6.5,7.5-7.2,2.8-10c-4.7-2.8-7.9-8.8-3.7-11
										c4.1-2.3,8.6-0.3,6.6-3.4c-2-3.1-2.8-4.9-8.9-7c-6.1-2.2-4.2-3.3-4.6-10.5c-0.3-7.1-3.7-13.5-4.8-10.7
										c-0.1,0.2-0.2,0.4-0.3,0.6c-0.2-1.4-0.5-2.6-1-3.8c0.3-0.2,0.7-0.4,1.1-0.5c1.6-0.3,2.2,0.2,3,0.6c0.4,0.3,0.8,0.7,1,0.9
										c0.5,0.6,0.8,1,1,1.5c0.5,0.9,0.9,1.8,1.1,2.7c1.2,3.4,1.6,7.1,1.5,10.5c0,1.7-0.2,3.6-0.1,4.4c0.1,0.4-0.1,0.2,0.2,0.4
										c0.3,0.2,0.9,0.6,1.5,0.8c2.7,1.1,6.8,2.4,9.3,5.9c0.6,0.8,1,1.6,1.5,2.3c0.2,0.3,0.5,0.7,0.8,1.4c0.1,0.4,0.3,0.8,0.3,1.7
										c0,0.9-0.8,2.1-1.5,2.4c-2,0.9-2.5,0.5-3.3,0.7c-0.8,0.1-1.4,0.2-2.1,0.3c-1.4,0.4-2.2,0.9-2.2,1.4c-0.2,0.6,0.1,1.9,0.8,3
										c0.8,1.4,2.1,2.6,3.5,3.5c1.4,0.9,3.2,1.5,5.2,2.7c0.5,0.3,1.1,0.7,1.7,1.6c0.7,1,0.3,2.6-0.2,3.2
										C393.7,256.6,392.7,257.1,391.8,257.7z M368.5,210.5c0-0.2-0.1-0.4-0.3-0.6C368.3,210.2,368.4,210.4,368.5,210.5
										C368.5,210.5,368.5,210.5,368.5,210.5z M315.6,339.3c-0.1,0-0.2,0-0.3,0C315.3,339.3,315.4,339.3,315.6,339.3z
										 M369.9,210.1c-0.2,0-0.4,0.1-0.7,0.2C369.5,210.2,369.7,210.2,369.9,210.1z M369.3,210.3c-0.1,0-0.1,0-0.2,0.1
										C369.2,210.4,369.2,210.4,369.3,210.3C369.2,210.3,369.3,210.3,369.3,210.3z M368.7,210.6c-0.3,0.2-0.2,0.4-0.2,0
										c0,0,0-0.1,0-0.1C368.5,211.1,368.4,210.9,368.7,210.6z M369.1,210.4c-0.2,0.1-0.3,0.2-0.4,0.2c0,0,0.1,0,0.1-0.1
										C368.9,210.5,369,210.4,369.1,210.4z"/>
								</g>
							</g>
							<g>
								<g>
									<path class="st6" d="M239.4,272.6c-0.8-2.7-3-1.9-4.4-3.5c-0.6-0.7-1.3,0.5,0.1-0.5c0.7-0.5,2.3-0.7,3.1-0.9
										c2.6-0.7,5.3-1.4,8-1.8c6.7-1.1,12.1-0.5,18.1,2.8c2.9,1.6,5.7,3.5,8.8,4.8c0.3,0.1,2,0.3,1.7-0.4c-0.1-0.3-0.7-0.4-1-0.6
										c-0.2-0.1-2.1-0.1-1.7,0.4c0.1,0.1,0.2,0.2,0.2,0.3c0.4,0.5,2.3,0.2,1.9-0.2c-0.1-0.1-0.2-0.2-0.2-0.3
										c-0.6,0.1-1.1,0.3-1.7,0.4c0.1,0.1,0.3,0.1,0.5,0.2c0.6-0.1,1.1-0.3,1.7-0.4c-7.3-2.9-12.8-8.3-21.1-8.4
										c-4.6-0.1-9.2,0.8-13.6,1.9c-2,0.5-6.3,0.9-7.7,2.6c0,0.1,0,0.2,0,0.2c1.5,1.9,4.4,0.7,5.4,3.8
										C237.6,273.4,239.6,273.3,239.4,272.6L239.4,272.6z"/>
								</g>
							</g>
							<g>
								<g>
									<path class="st6" d="M339.2,266.6c4.4-1.5,9.9-5,14.6-5.2c4.2-0.1,2.4,4.9,5.1,6.8c2.2,1.5,4.8-0.8,6.8-1.8
										c-0.1,0-0.4-0.2-0.5-0.2c-2.9,1.5-5.3,3.6-7.1,0c-0.8-1.6-0.7-3.7-2.4-4.7c-0.7-0.4-1.5-0.3-2.3-0.3
										c-4.8,0.4-10.1,3.6-14.6,5.2C338.9,266.4,339.1,266.7,339.2,266.6L339.2,266.6z"/>
								</g>
							</g>
							<g>
								<path class="st6" d="M175.8,300.2c2.3-5.5,5.1-8.3,11.1-13.2c6-4.9-0.5-13.2,6.5-17.3c6.9-4,13.4-5.5,20.4-4.6
									c6.9,0.9,22.7,2.9,13.4,3.2c-9.3,0.3-17.6,0.6-9.3,2.6c8.3,2,15.7,5.8,9.3,4.9c-6.5-0.9-22.2-4.6-18.5-2.6
									c3.7,2,16.2,4.9,10.2,4.6c-6-0.3-10.2,1.2-3.7,2.6c6.5,1.4,8.8,0.6,9.3,3.2c0.5,2.6-1.4,6.1-5.1,3.5
									c-3.7-2.6-7.9-4.3-9.7-2.3c-1.9,2-0.5,7.8,3.7,10.1c4.2,2.3,12.9,6.3,2.8,9.2c-6,1.7-23.1,10.7-24.1,13.5
									c-0.9,2.9-2.8,2.3-11.6,4.3c-8.8,2-24.1,3.7-16.2,0c7.9-3.7,9.7-5.2,2.8-4.6c-6.9,0.6-11.6,0-5.1-3.7
									C168.4,309.7,175.8,300.2,175.8,300.2z"/>
							</g>
							<g>
								<path class="st6" d="M380.8,273.4c3.7-6.6,14.7-7,22-3.5c7.3,3.5,17.4,5.3,16.5,11.7c-0.9,6.4-3.7,8.8,2.8,13.4
									c6.4,4.7,17.5,14,7.3,10.5c-10.1-3.5-12.9-1.8-5.5,2.9c7.3,4.7,15.6,6.4-0.9,5.8c-16.5-0.6-39.5-1.2-23,1.8
									c16.5,2.9,20,5.4,0.8,3.6c-19.2-1.8-34.8-1.8-21,1.7c13.8,3.5,12.9,8.2-8.3,2.3c-21.1-5.8-25.7-4.1-16.5-14
									c9.2-9.9-10.1-14,6.4-18.1C378,287.4,376.2,281.6,380.8,273.4z"/>
							</g>
							<g>
								<g>
									<path class="st6" d="M315.8,341.5c-2.3-2.7-7.8-3.1-12.2-3.1c-3.9,0-9.8,0.2-12.1,2.3c-1.9,1.8-1.7,6.2-1,8.6
										c2,6.4,8.1,9.2,13.1,9.3c4.4,0.1,10.1-2.8,12.8-10.1C317.1,346.5,317.2,343.1,315.8,341.5z M312.2,344
										c-1.8,2.6-5.4,3.6-8.2,3.6c-3.2,0-7.1-1-8.4-3.3c-0.5-0.9-0.6-2.4,0.6-3.1c1.5-0.8,5.3-0.8,7.8-0.8c2.8,0,6.3,0.2,7.8,1.1
										C312.8,342,312.7,343.3,312.2,344z"/>
								</g>
							</g>
							<g>
								<g>
									<path class="st6" d="M354.2,178.9c-6.2-7.7-17.9-18.4-37.5-20.3c-19.6-1.9-27.6,8.5-43.7,7.5c-16.2-1.1-31,18.8-35.1,32.7
										c-4.1,13.9-1.1,16.6,4.7,11.5c5.8-5.1-1.7,3.4,0.6,14.1c2.4,10.7,3.2,2.8,9.7-2.3c6.5-5.1,13.6-7.3,12.1,1.5
										c-1.5,8.7-1.3,11.9,4.1,19.6c5.4,7.7-0.4,13.4,8.6,1.1c9-12.4,8.6-11.3,10.3-1.1c1.7,10.2,11.4,18.4,17.2,25.4
										c5.8,7,2.2,12.6,6.7,5.1c4.5-7.5,6.9-23.3,11.4-14.3c4.5,9,2.4,2.1,2.4,2.1c2.4-6.2,8.2-17.1,25-35.2
										C367.5,208.2,360.4,186.6,354.2,178.9z M265.1,183.6c-4.5,4.8-22.1,12-17.1,9.5c5-2.5,10.1-8,15.4-15.5
										c5.3-7.6,20.6-3.9,23.5-0.1c0,0-2.3,1.1-7.3,1.1C274.5,178.6,269.7,178.8,265.1,183.6z M313.4,229.9
										c-2,11-3.1,22.6-5.9,10.3c-2.9-12.4-3.7-3.4-5.3,7.1c-1.6,10.5-2.4,12.1-3.7-0.3c-1.2-12.4-2.6-13.9-2.2-18.4
										c0.4-4.5-4.5-9.2-7.9-1.1c-3.5,8.2-3.3,2.1-1.2-8.7c2-10.8-11.6,12.1-12.8,20c-1.2,7.9,1.2-15.8,6.5-25.8
										c5.3-10-6.3-5.8-11.8,3.4c-5.5,9.2-0.4-1.1,0.6-8.2c1-7.1-1-16.8,11-19.2c12-2.4,16.3,15.5,21,15c4.7-0.5,3.3,5.3,3.3,5.3
										c2.8,9.5,4.1,11.3,4.5,14.5c0.4,3.2,1.8,6.3,2,0.8C311.6,219.1,315.4,218.9,313.4,229.9z M330.7,219.1
										c-6.3,10.5-9.6,19.5-8.8,26.3c0.8,6.8-4.6-16.3-1.7-24.2c2.9-7.9-1.3-13.2-5.8-18.4c-4.6-5.3-5-8.4-5-8.4
										C317.8,194.9,337,208.6,330.7,219.1z M333.4,187.8c-9.8,1.5-11.2-5.8-11.2-5.8c6.9-1.5,21.3,1,22.8,16
										c1.4,15,1.4,15,1.4,15S343.1,186.3,333.4,187.8z"/>
								</g>
							</g>
							<g>
								<g>
									<path class="st6" d="M256.9,274.2c-2.6,1.8-4.8,0.3-5.8-1.1c-0.6-0.8-1.7-0.6-2.6-0.9c-0.5,1.9-0.3,4.3-0.3,4.3
										s2.4,8.3,5.3,8.7c2.9,0.5,5.3-7.8,6.1-10.8c0.1-0.5,0.1-0.9-0.2-1.3C258.5,273.4,257.6,273.7,256.9,274.2z"/>
								</g>
							</g>
							<g>
								<g>
									<path class="st6" d="M346.7,267.2c-0.9,0.8-1.9,1.6-2.7,1.9c-1.8,0.8-2.5,4.6-4.7,4.2c-2.1-0.4-3-2.1-4.3-2.5
										c-0.7-0.2-1.7,0.1-2.5,0.1c-1.4,3.4,2.8,7.8,5.8,10.7c3.1,2.9,5.6,3.3,6.6,0.6c1-2.8,1.8-6,3.7-10.2
										C349.9,269.4,348.6,267.8,346.7,267.2z"/>
								</g>
							</g>
							<path class="st6" d="M414.5,328.5c-4.2,0.3-9.1,0.7-14.1,0.2c-5-0.4-3.4,0.6-1.6,1.6c1.8,1,0,2-5.1,2.2
								c-5.2,0.3-5.4-0.1-10.1-0.5c-4.8-0.5-6,0.1-5.5,1.9c0.4,1.8-5.6-0.8-13.5,0.2c-7.9,1-10.3-0.4-16.3,0.1
								c-5.9,0.5-10.4,6-13.7,10.5c-3.3,4.5-11.8,18.8-16.3,22.6c-4.5,3.8-8.6,6.5-16.6,6.5c-7.9,0-14-4.2-19.6-10
								c-5.7-5.8-11.6-17-15.2-20.5c-3.6-3.5-1.2-13.8-12.3-9.5c-11,4.3-10.2,4.3-17.2,5.4c-6.9,1.2-9.6-3.2-12.3-1
								c-2.7,2.2-6.7,0.8-7-2.2c-0.3-3,1.8-9.8-1.9-9.5c-3.8,0.2-1.9-7.1-7.8-3.2c-5.9,3.8-6.3,2.9-7.3,0.5c-1-2.5-7.5,0.8-9.9,4.1
								c-2.3,3.2-2.3,4.3-6.3,5.4c-4,1.1-5.1,3.5-5.2,6.5c-0.1,3,0.3,5.8,1.8,3c1.5-2.9,1.1-5.3,10.2-5.3c9.1,0,30.1,10.3,36.7,9.7
								c6.5-0.6,15.4-3.8,19.4-4.9c4-1.1,11.6-3.7,19.8,9.4c8.2,13.2,18.9,27.2,35.2,26.9c16.3-0.3,25.3-18,30.5-25.4
								c5.2-7.4,7.9-12.7,13.1-13.2c5.2-0.4,15.3,1.9,25.3,3.5c10,1.6,18.6-1.9,23.3-4.3c4.7-2.4,9.8-4.8,15-5.6
								c5.1-0.8,7.7-0.8,10.2,1.8c2.4,2.6,4.1,4.7,2.8,0.3C421.7,331.2,420.8,328,414.5,328.5z"/>
						</g>
					</g>
				</g>
			</g>
			<g>
				<defs>
					<rect id="SVGID_00000008870076907096813740000000188076797192401558_" x="62.4" y="90.7" width="119.6" height="689"/>
				</defs>
				<clipPath id="SVGID_00000153678409763985345710000001189595185412362162_">
					<use xlink:href="#SVGID_00000008870076907096813740000000188076797192401558_"  style="overflow:visible;"/>
				</clipPath>
				<g style="clip-path:url(#SVGID_00000153678409763985345710000001189595185412362162_);">
					<g>
						<g>
							<path class="st14" d="M110.8,346.3c0,0-6.2-4.4-4-11.1c2.2-6.6,1.8-9.3-2.7-11.9c-4.4-2.7-6.2-6.6-6.2-14.2
								c0-7.5-0.9-10.6-4-17.7c-3.1-7.1-4.4-19-8.4-26.1s-6.2-8.4-6.6-10.2c-0.4-1.8,2.2,10.2,2.2,10.2c3.5,3.5,5.3,12.8,6.2,16.8
								c0.9,4,2.2,8.8,2.2,11.9c0,3.1,4.4,5.3,4,11.5c-0.4,6.2-3.1,16.4,0.4,23c3.5,6.6,8,2.2,8.4,9.7c0.4,7.5-3.5,14.6,0,17.7
								c3.3,2.9,9.8-1.6,11.3,2.6C113.2,355.1,116.1,350.7,110.8,346.3z M114.2,381.6c1.7,1.5,3.8,3.4,7.5,5.6
								C118.2,384.5,116.8,382.6,114.2,381.6z M113.7,358.6c0,0.3,0.1,0.6,0.2,0.9C113.9,359.2,113.8,358.9,113.7,358.6z M90.9,329
								c-2.4-9.3-6.6-24.5-8.4-34.5c-1.8-9.9-3.3-25.2-4.7-33.8c-1.3-8.6-5.5-20.1-3.8-25c1.4-3.8,2.5-9.5,5.8-12.3c0,0-0.1,0-0.1,0
								c-5.6,1.3-6.9,8.8-8.6,13.5c-1.7,4.7,2.4,15.9,3.7,24.3c1.3,8.4,2.8,23.2,4.5,32.9s5.8,24.5,8.2,33.5
								c2.4,9,4.7,17.6,6.7,28.4s4.1,11,4.3,15.5c0.1,2.4,1.9,2.6,3.7,2.5c-0.3-4.5-2.4-4.8-4.4-15.8
								C95.8,347.1,93.3,338.3,90.9,329z M109.9,377.2c-0.5-0.8-1.9-0.7-3.4-0.6c0.5,0.7,1.4,1.5,3.1,2c0.2,0.1,0.4,0.1,0.6,0.2
								C109.8,378,109.9,377.2,109.9,377.2z"/>
						</g>
					</g>
					<path class="st6" d="M146.1,455.4c-3.6,4.7-6.1,8.5-8.1,13.3c-2,4.9-2.6,10-0.6,10.3c2,0.3,4.9,2,13.8,6.6
						c8.9,4.6,41.9,24.7,45.3,27.2c3.4,2.6,4.6,4.3,6.3,9.7c1.7,5.4,3.7,13.5,10.6,31.3c6.9,17.8,16.1,34.7,25.8,49.3
						c9.7,14.6,33.3,46.7,40.7,56.8c7.5,10,18.9,25.8,20.6,30.4c1.7,4.6,0.3,10-0.3,16.1c-0.4,3.7,2.6,6.3,4.3,9.2
						c2.6,4.3,3.9,8.7,9.7,14c5.7,5.2,20.4,15.5,20.4,15.5c11.5,7.2,30.1,8.6,34.7,7.2c4.6-1.4-1.7-8.3-4.6-10.3
						c-2.9-2-4.3-4-8.3-10.9c-4-6.9-10.6-16.9-15.5-22.4c-4.9-5.4-9.5-13.5-15.5-20.4s-15.8-22.7-22.4-34.7
						c-6.6-12-21.2-49.6-29-69.1c-7.7-19.5-21.5-48.7-26.7-57.3c-5.2-8.6-4.9-24.7-7.5-32.7c-2.6-8-10.2-11.6-15.9-15.9
						c-9.2-7-13.3-17.2-19.8-22.8c-11.3-9.8-18.5-13.8-25.8-16.3c0,0-4.7-9.9-19.6,1.7C159,441.2,153.4,445.9,146.1,455.4z"/>
					<path class="st15" d="M148.2,455.4c-3.6,4.7-6.1,8.5-8.1,13.3c-2,4.9-2.6,10-0.6,10.3c2,0.3,4.9,2,13.8,6.6
						c8.9,4.6,41.9,24.7,45.3,27.2c3.4,2.6,4.6,4.3,6.3,9.7c1.7,5.4,3.7,13.5,10.6,31.3c6.9,17.8,16.1,34.7,25.8,49.3
						c9.7,14.6,33.3,46.7,40.7,56.8c7.5,10,18.9,25.8,20.6,30.4c1.7,4.6,0.3,10-0.3,16.1c-0.4,3.7,2.6,6.3,4.3,9.2
						c2.6,4.3,3.9,8.7,9.7,14c5.7,5.2,20.4,15.5,20.4,15.5c11.5,7.2,30.1,8.6,34.7,7.2s-1.7-8.3-4.6-10.3c-2.9-2-4.3-4-8.3-10.9
						c-4-6.9-10.6-16.9-15.5-22.4c-4.9-5.4-9.5-13.5-15.5-20.4s-15.8-22.7-22.4-34.7c-6.6-12-21.2-49.6-29-69.1
						c-7.7-19.5-21.5-48.7-26.7-57.3c-5.2-8.6-4.9-24.7-7.5-32.7c-2.6-8-10.2-11.6-15.9-15.9c-9.2-7-13.3-17.2-19.8-22.8
						c-11.3-9.8-18.5-13.8-25.8-16.3c0,0-4.7-9.9-19.6,1.7C161.1,441.2,155.6,445.9,148.2,455.4z"/>
					<path class="st16" d="M274,468.5c2,0.9,1,2.7,4.6,3c4.7,0.4,6.3,2,7.2,3.2c1,1.4,1,2.2,0.9,3.2c-0.2,1.6-0.4,2.3-3.9,0
						c0,0-2.3-1.1-5.3-1.4c-3-0.3-6-1.3-7.6-2.3c-1.6-1-3.2-1.6-2-2.3C269,471,274,468.5,274,468.5z"/>
					<path class="st6" d="M197.3,492.1c0,10.5-1.7,34.3-2.9,48.7c-1.1,14.4-4.4,28.1-7.7,47.8c-4.6,26.8-8,42.6-9.2,55.9
						c0,0-3.2,26.5-2.3,38.3c0.9,11.8,3.2,15,4,17.9c0.9,2.9,3.4,7.2,5.7,12.1s8.2,13.3,10,16.7c2.3,4.3,2.9,16.7,1.1,23.6
						c0,0-1.7,6.6-4.9,6.9c-3.2,0.3-7.5-3.2-10.3-5.5c-2.9-2.3-7.1-5.8-8-6.9c-4.6-5.5-4.9-11.8-6.9-19.9s-4-11.2-4.3-16.7
						c-0.3-5.5-2.9-8.1-2.9-23.9c0-15.8-1.1-41.2-2.6-55c-1.4-13.8-6.3-47.6-6-71.5c0.3-23.9,1.8-49.3,2-57.9
						c0.3-11.8-0.9-24.4-1.7-36.6c-0.9-13.5-4-21.9-2.9-28.8c1.4-8.6,8.9-16.3,12.3-17.6c7.2-2.6,12.3-2,15.5-2
						c0,0,14.5,5.2,16.8,19.3c2.3,14.1,2.2,25.6,3.3,31.7C196.8,474.8,197.3,489.5,197.3,492.1z"/>
					<g>
						<g>
							<path class="st6" d="M142.8,433.5c-1.5,4-1.2,9.3-0.7,12.4c0,0,0.8,5.6-2.3,10.4c-3.1,4.8-6.4,11.8-6.8,16.9
								c-0.4,5.1-0.1,16.6-2.5,18.7c-2.4,2.1-3.3,1.5-6.4,3c-3.1,1.5-4.6,3.7-4.5,7.3c0.1,3.6-2.1,3.2-5.4,1.5
								c-3.2-1.6-8.7-4.4-12.4-9.3c-3.7-4.9-5-9.5-4.8-14.8c0.2-5.4,1.9-7.3,3.3-10.3c1.4-3,1.5-3.8,2.3-0.8c0.7,3,0.8,5.4,2.6,7
								c1.8,1.6,3.8-3.7,6.4-0.4c2.6,3.3,3.5,4.3,7.3,4.3c3.8,0,6.7,0.4,6.6-1.8c-0.1-2.2,0-1.8-3.6-2.7c-3.6-1-8.2-4.1-11.2-7.1
								c-3-3-9.4-9.2-13-11.4c-3.6-2.2-5.2-3.4-5.5-6.7c-0.2-3.3,0.1-4.1,1.5-2.9c1.4,1.2,3.5,2.1,9.5,2.1c6.1,0,6.7-0.8,9.5-1.6
								c2.9-0.8,5.4-2.6,8.9-2.3c3.6,0.3,7.1-0.8,10.6-1.4c3.5-0.5,5.6,0.1,3.8,1.2c-1.8,1.1-7.4,2.9-10.4,5.4
								c-3,2.5-6.4,6.9-6.6,10.7c-0.1,3.8-0.1,4.4,1.8,5.6c1.9,1.2,0.5,2.9,3.3,3.6c2.9,0.7,4.6,1.8,6.7,0c2-1.8-1.3,1.5-1.2,5.5
								c0.1,4-1.1,12.5-3.8,11c-2.7-1.5-4.8-2.5-5.4,1.1c-0.6,3.6-2.9,3.3-4.8-0.5c-1.9-3.8-3.5-4.3-5.2-5.9
								c-1.8-1.6-1.3,0.6-0.5,2.5c0.8,1.9,1.8,7.1,5.1,7.6c3.3,0.4,5.2-0.4,6.7-1.4c1.4-1,2.5-1.4,3.5,1.1c1,2.5,3,1.5,4.3-0.4
								c1.3-1.9,2.5-7.8,1.8-10.7c-0.7-2.9-0.4-7,0.6-9.3c1-2.3,3.8-9.8,5.8-13.1c2-3.3,2.7-5.1,2.3-8.8c-0.5-3.7-0.5-12,0.7-16.1
								c1.2-4.1,4.6-7.8,7.1-10c2.5-2.2,5.6-5.1,8.2-5.5c2.6-0.4,6.8,0.8,4.5-1c-2.3-1.8-9.1-4.9-12.3-3.2c-3.2,1.8-11.9,6-16.8,6.6
								c-4.9,0.5-11.4,3.2-17.3,5.8c-5.8,2.6-11,2.3-15,3.4c-4,1.1-5.8,1.4-7.3-2.1c-1.4-3.4,0.7-5.9,3.7-8.5c3-2.6,4.3-6.2,9.3-7
								c5-0.8,12.6-0.1,18.9-0.3c6.3-0.1,11.2-0.5,16.2-0.3c5,0.3,5.2-1.9,6.8-1.9c1.5,0-17.3-11.7-21.7-15.1
								c-4.4-3.4-8.8-8.1-12.4-9.5c-3.6-1.4-5.2-2.9-6-5.1c0,0-0.5-3-0.3-3.7c-0.1-0.1-0.3-0.3-0.4-0.4c-2.4-2.3-2.7-3.5-2.9-0.1
								c-0.2,3.3-1.4,4.3-4.1,7.1c-2.7,2.7-2.3,8.4-4.6,10.2c-2.3,1.9-2.1,8.5-4.4,8.6c-2.3,0.1-4.1,0.4-5.6,2.9
								c-1.5,2.4-0.3,6.8,2.1,10.2c2.4,3.5-2.9,6.5-5.3,8.8c-2.4,2.3-2.3,3.7,0.5,6.9c2.7,3.2,3.2,3.2,3.3,8.5
								c0.2,5.3-1.8,7.1-0.5,12.8c1.4,5.8,6.7,10.2,10.3,12.1c3.6,1.9,2.3,4.8,0.2,8.8c-2.1,4-3.3,8.2-2.7,14.7
								c0.6,6.5,5.8,11.4,9.6,15c2.7,2.6,4.9,4.3,9.1,5.8c4.2,1.4,9.1,2.2,9.9,0.3c0.8-1.9,2.3-4.2,3.9-7.2c1.7-3,4.4-4,9.6-3.2
								c5.2,0.9,5.3-2.3,10.6-1.9c5.3,0.4,3-2.4,7.4-2.4c4.4,0,3-3.6,1.7-6.5c-1.4-2.9-13.3-6-15.3-6.2c-2-0.1-0.3-1.3-0.3-6.3
								s5.2-9.6,8.3-16.8c3.2-7.2,3.5-6.2,2.1-11.7c-1.4-5.5-0.3-8.1,1.7-12.2c2-4.2,6.7-9.2,10.5-13c0.7-0.7,1.3-1.2,2-1.6
								c-3,0.2-8.7,0-11.3,2.2C148.5,423.2,144.4,429.5,142.8,433.5z M178.5,414.3c-2.7-1.7-11.8-5.5-19.7-10.1
								c-7.9-4.6-20.2-11.5-24.9-14.3c-4.7-2.7-16.8-9.2-21.2-10.9c-3.5-1.4-3.8-1.9-5.1-3.3c1.3,2.7,0.7,4.2,3.4,4.5
								c2.9,0.3,6.5,4.1,9.8,6.2c3.2,2.1,24.5,17.2,24.5,17.2c4.2,3.2,8.9,5.6,12.9,8.1c3.8,2.4,6.2,4,7,5.5
								c2.3-0.9,4.6-0.7,7.4-0.6C176.8,416.6,181.2,416,178.5,414.3z"/>
						</g>
					</g>
					<path class="st16" d="M309.7,723.8c5.5,6.6,20.1,17.3,25.6,19.6c4.2,1.7,5.9,6.5,13.5,5.2c5.5-1,6.7-5.4,12.3-3.9
						c3.8,1,4.1-3.4,5.8-1.7s5.2,8.4,16.6,13.9c9.7,4.7,7.7,7.2,6.7,8.5c-1.2,1.5-4.6,2.3-8.3,2.5c-3.7,0.2-32.9,0-40-2.8
						s-9.2-9.1-13.8-17.3c-4.2-7.6-8.3-10.5-13.2-12.3c0,0-2.8-0.8-2.6,3.1c0.2,3.9,1.6,13.2,1.3,13.7c-0.3,0.4-1,0.5-2.3,0.5
						s-1.6-0.3-1.8-2.5c-0.2-2.2-1.2-11.4-2-15.3c-0.9-3.9-3.8-5.2-3.8-5.2s-8-4.5-8.4-9.9c0,0-0.4-6.2,1.6-10.6
						c2-4.4,3.4-3.4,3.3-2.3s4.2,5.4,5.2,8.9C306.4,719.5,309.7,723.8,309.7,723.8z"/>
					<path class="st16" d="M186.3,716.4c-1.7-2.3-2-6.5-3.8-9.8s-2.3-4.2-3.3-5.2s6-0.4,7.8,4.3c1.8,4.7-0.4,7.5,0.2,9.7
						C187.9,717.6,186.3,716.4,186.3,716.4z"/>
					<path class="st16" d="M194.8,729.5c1.9,1.7,13.2,13.8,12.2,24.4c-1.1,12.3-7,23.9-11.1,23.9c-7.5,0-13.3-4.8-17.9-11.1
						c-4-5.5-1.9-6.7-4.6-11.2c-2.7-4.5-0.6-2.3-2-6.2c-1.4-3.9-1.1-4.7,0.2-3.4c1.3,1.2,3.7,2.9,4.4,3.3c0,0,16.1-9.1,18.5-9.1
						c0.2-2.8,0.7-3.8,0-6.7C193.9,730.3,194.8,729.5,194.8,729.5z"/>
					<path class="st16" d="M179.1,750.7c0.1-1.7,5.8-3.8,10.6-5.5c4.5-1.6,8-3.3,7.5-0.6c-0.4,2.7-0.5,9-2.6,11.6s-5.3,2.6-8.7,0.5
						C182.5,754.6,178.9,753.8,179.1,750.7z"/>
					<path class="st16" d="M356.3,749.3c-1.1-2.2,4.6-2.2,8.3-2.2c3.3,0,4.4-0.1,4.6,1.1c0.2,1.7-0.7,2.6-4.9,2.9
						C360.2,751.5,356.9,750.3,356.3,749.3z"/>
					<path class="st16" d="M278,465.5c3.1-2.1,8.5-5.5,12-8.2c3.6-2.7,5.9,0.4,9.3,5.1c3.4,4.6,3.4,6.1,5.9,9
						c2.4,2.8,2.9,4.3,2.2,5.7c-0.7,1.3-1.7,1-3.2-0.1c0,0-1.3,0,0,1.2c0,0,1.6,2.4,2.3,3.6c0.7,1.2,2.6,2.1,1,3.4
						c-1.6,1.3-3.7-2-2.3-0.3c1.1,1.3-2.7,0.9-5.2,0.2c-1.7-0.5-3.9-1.9-7.2-5.2c0,0-3.4-3.4-5.4-5.8s-3.3-3.9-5.9-4.9
						C279.1,467.9,275.5,467.3,278,465.5z"/>
					<path class="st6" d="M138.5,300.7c2-6.8,2.3-9.1,1.6-19.7c-0.7-10.5-1.6-26-2-33c-0.5-7,7.9,35.3,17.9,46.1
						c10,10.8,15.6-0.2,18.3-10.8c2.7-10.5,5.9-18.5,8.8-29c2.9-10.5,2.9-9.4,3.8-2.6c0.9,6.8,4.3,52.6,11.8,61.8
						c7.5,9.1,10.2,13.3,4.8,18.2c-5.4,4.9-14.7,16.8-7,23.6c7.7,6.8,6.8,10.1,7,15.9c0.2,5.8,1.4,11.7,7.9,15
						c6.6,3.3,10,6.8,6.3,10.1c-3.6,3.3-5.7,4.4,0,7.5c5.7,3,7.9,6.6,8.8,9.4c0.9,2.8,5.9,7.3,0.9,4.4c-5-2.8-9.5-5.6-13.4-7.7
						c-3.8-2.1-5.7-2.8-6.3-3.5c-0.7-0.7,2-3.3-0.5-5.6c-2.5-2.3-22.9-13.6-27.6-18.9c-4.8-5.4-25.1-17.8-36.4-24.3
						c-11.3-6.6-18.1-9.6-18.8-16.1c-0.7-6.6-0.2-11.9-1.1-16.8c-0.9-4.9,0.2-7,5.2-11.9C133.6,307.7,138.5,300.7,138.5,300.7z"/>
					<g>
						<g>
							<path class="st17" d="M227.7,398c-3.2-6.6-12.5-26.1-13.2-28.9c-0.7-2.9-3.5-4.6-1.6-8.6c1.8-4,8.1-17.4,11.1-28.9
								c3-11.5,6.5-24.5,12-34.4c5.5-9.9,7.9-21.6,7.9-33.3c0-10.7-3.3-9.4-7.5-9.3c1.7,0.7,2.7,2.2,1.1,2.8
								c-2.3,0.9-3.5,1.3-0.8,3.5c2.7,2.2,4.4,7.8,2.7,14.9c-1.7,7.1-6.4,16.6-9.5,26.1c-3.1,9.5-6.4,27.4-10.8,38.4
								c-4.4,11-7.1,14.5-6.8,16.8c0,0.5-0.1,0.8-0.2,0.9c1.4,0.3,1.8,0.8,0.2,2.3c-2.3,2.2-4.2,3.7-7.1,4.7c-2.9,1.1-4.2-1.7-6-5
								c-1.9-3.2-2.1-6-0.8-12.7c1.2-6.7,5.8-11,7.1-14c1.2-3,4.1-8.9,6.8-14.2c3.5-6.9,9.8-20.5,13.1-29.4
								c3.3-8.9,4.6-14.2,3.9-20.7c-0.6-6.5,1.7-10.6-0.2-12.5c-1.3-1.3-1.7-2.3-2.4-3.2c-2.6-0.9-3.1-2.8-1.3-1.3
								c0.6,0.5,1,0.9,1.3,1.3c0.2,0.1,0.4,0.1,0.6,0.2c3.1,0.9,4.2,0.4,4.4,2.4c0.2,1.7-0.1-0.6,1.5-1.5c-2.7-0.4-3.3-1.6-8.2-5.6
								c-6-4.9-23.1-11.5-27.3-13.7c-4.2-2.2-7.2-1.1-7.2,2.2c0,3.3-3.5,6.2-5.1,16.1c-1.6,9.9-0.7,21.4-0.5,28.7
								c0.2,7.3,3.7,19.2,4.9,28.5c1.2,9.3,4.6,17.4,9.2,20.3c4.6,2.9,5.8,3.8,1.6,5.5c-4.2,1.8-6.2,4.9-9.5,13.9
								c-3.2,9.1,4.6,17,8.6,17.4c3.9,0.4,1.9,2,1.9,8.8c0,6.8,4.2,11,9.7,16.3c3.9,3.8-0.5,4.4,0,10.2c0.5,5.7,9.9,5.1,12.3,10.2
								s3.2,3.3,7.9,5.5c4.6,2.2,7.2,4.4,7.4,1.8c0.2-2.6-3.7-6-4.2-8.2C234,410.1,231,404.6,227.7,398z M231.9,261.1
								c1,2.6,1.7,8.9-0.2,15.8c-1.9,6.9-6.6,22-13.5,36.5c-6.8,14.5-14.3,25.7-15.6,31.7c-1.2,6-0.8,10.4-1.5,13.4
								c-0.6,3-0.6,2.2,2.3,0.6c2.9-1.5,3.7-1.7,6.4-1.5c0.6,0,1.2,0.1,1.7,0.2c-0.6-0.5-1.2-2.8,0.4-6.7c2.5-6,6.4-14.2,10.2-29.1
								c3.7-14.9,7.9-24.8,10-31.1c2.1-6.3,5.4-16.2,4.8-21.4c-0.6-5.2-0.6-5.8-2.3-7.6C232.9,260.3,230.9,258.5,231.9,261.1z"/>
						</g>
					</g>
					<path class="st16" d="M197.8,422.1c2.7-1.6,8.9-8.1,10.6-11.8c1.7-3.7,1.7-3.7,1.7-3.7s3.7,2.2,8.2,4.1c4.5,2,8.6,5,12.9,6.3
						c4.3,1.3,9,4.4,12.8,8.8c3.8,4.5,12.6,11.1,13.8,13.8c1.2,2.7,1.3,6.1,1.7,8.4c0.4,2.3,1.3,7.1,1.9,9.4c0,0,1.9,5.2,0.7,6.7
						c-1.3,1.4-2.3,0.2-2.3,1.8c0,1.7,0.3,5.4-1.6,6c-2.7,1.2-1.7,3.7-4,4.3c-2.3,0.6-2.5-1.1-5-0.1c-3.4,1.3-2.5,3.3-3.8,3.9
						c-2.1,1-5.4-2.7-3.8-4.9c1.5-2,0.3-3.3-0.3-5.6c-0.6-2.3-0.3-3.3-0.9-5.4c-0.6-2.1-4.7-2.8-7.5-7.7c-2.8-4.8-3.5-9-5.1-12
						c-1.6-2.9-1.3-4.8-2.3-7.1c-1-2.3-3.4-3.2-7.8-4.5c-4.3-1.3-13.9-8.4-16.8-9.1C198,423,197.8,422.1,197.8,422.1z"/>
					<path class="st6" d="M197.8,504.2c0,10.2-1.7,33.1-2.9,47.1c-1.2,13.9-4.4,27.1-7.8,46.2c-4.6,25.9-8.1,41.2-9.3,54
						c0,0-3.2,25.6-2.3,37c0.9,11.4,3.2,14.5,4,17.3c0.9,2.8,3.5,7,5.8,11.7c2.3,4.7,8.3,12.9,10.1,16.2c2.3,4.2,2.9,16.2,1.2,22.8
						c0,0-1.7,6.4-4.9,6.7c-3.2,0.3-7.5-3.1-10.4-5.3c-2.9-2.2-7.2-5.6-8.1-6.7c-4.6-5.3-4.9-11.4-6.9-19.2c-2-7.8-4-10.9-4.3-16.2
						c-0.3-5.3-2.9-7.8-2.9-23.1c0-15.3-1.2-39.8-2.6-53.2c-1.4-13.4-6.4-46-6.1-69.1c0.3-23.1,1.8-47.6,2-56
						c0.3-11.4-1-23.6-1.7-35.4c-0.9-13.1-4-21.2-2.9-27.9c1.4-8.3,9-15.8,12.4-17c7.2-2.5,12.4-1.9,15.6-1.9c0,0,14.6,5,16.9,18.7
						c2.3,13.6,2.2,24.8,3.3,30.6C197.2,487.5,197.8,501.7,197.8,504.2z"/>
					<g>
						<g>
							<g>
								<path class="st6" d="M298.5,399.3l-52.1,28.2c4.4,4.3,10.8,9.5,11.8,11.8c1.2,2.8,1.4,6.3,1.7,8.6c0.4,2.4,1.3,7.3,1.9,9.7
									c0,0,2,5.4,0.7,6.9c-1.3,1.5-2.4,0.2-2.4,1.9c0,1.7,0.3,5.6-1.6,6.2c-2.8,1.2-1.8,3.8-4.2,4.4c-2.4,0.6-2.5-1.1-5.1-0.1
									c-3.5,1.4-2.6,3.4-3.9,4c-2.2,1-5.6-2.8-4-5c1.5-2.1,0.3-3.4-0.3-5.8c-0.6-2.4-0.3-3.4-0.9-5.6c-0.6-2.2-4.9-2.9-7.7-7.9
									c-2.9-5-3.6-9.3-5.3-12.4c-1.1-2.1-1.4-3.7-1.7-5.3l-14.7,8l10.3,56.4l86.2-56.4L298.5,399.3z"/>
							</g>
						</g>
						<polygon class="st6" points="209.1,445.6 297,398 305.6,445.6 219.4,501.9 						"/>
						<polygon class="st6" points="204.8,438.5 292.7,390.9 301.3,438.5 215.1,494.8 						"/>
					</g>
					<g>
						<path class="st6" d="M127.8,347.1c4.6,4.7,2.4-10.4,0.9-19.2c-1.4-8.8,1-7.7-2.6-11.6c-3.7-3.9-6.2-4.6-6-12.8
							c0.2-8.2,1.6-14.2-0.7-21.4c-2.3-7.2-4-8.3-3.8-14.4c0.2-6,0.5-17-3.2-20.9c-3.7-3.9-5.1,2.6-3.1,7.1c2,4.4,6,12.2,5,17.7
							c-1,5.5,1.2,18.7,2.8,21.5c1.6,2.8,3.2,7.8,2.9,16.5c-0.2,8.8,2.4,20.9,4.4,23.2C126.4,335,126.1,345.4,127.8,347.1z"/>
						<path class="st6" d="M158.6,324.7c0,3.7-7-8.1-10-13.8c-3-5.7-3.5-8.2-2.5-10.3c1.1-2.1,1.4-2.7,2-4.3
							c0.6-1.6,1.1-1.4,1.6,2.5c0.5,4,3.2,13.4,4.3,16.5C155.1,318.5,158.6,324.3,158.6,324.7z"/>
						<path class="st6" d="M163.9,330.1c3.4,0.2,12.9-2.8,16.8-12.7c3.9-9.9,5.8-11.4,7.1-16.6s1.7,5.6-0.6,16.6
							s-8.6,20.6-17.2,20.4c-8.6-0.2-13.5-3.7-15.3-8c-1.7-4.3,0.4-3.4,3-1.3C160.3,330.7,163.9,330.1,163.9,330.1z"/>
						<path class="st6" d="M163.6,351.5c0,2.8,0.2,3.9-4.5,6.9c-4.7,3-7.7,3.9-4.9,0.4s4.7-5.6,5.4-6.9s-2.2,0.2-7.5,1.5
							c-5.4,1.3-6.8-0.1-3.2-1.5c3.6-1.3,5.8-3,6.9-3.7c1.1-0.6-1.9-0.6-6.9-1.9c-4.9-1.3-9.7-4.5-13.1-5.2
							c-3.4-0.6-5.8-1.3-3.2-2.8c2.6-1.5,6.2-1.3,9,0.9c2.8,2.2,6.2,3.4,11.6,5.2c5.4,1.7,9.2,2.2,10.1,3S163.6,351.5,163.6,351.5z"
							/>
						<path class="st6" d="M168.8,352.2c-0.6-1.9,1.9-3.7,5.4-4.1c3.4-0.4,6.9-0.6,11.8-1.9c4.9-1.3,6-1.5,5.2,1.1s-6.5,3.2-9.5,2.8
							c-3-0.4-8.8,0.4-7.1,2.2c1.7,1.7,4.5,4.7,7.3,6.9c2.8,2.2,3.4,3.4,3,5.8c-0.4,2.4-2.8,0-6.7-2.8
							C174.4,359.3,169.5,354.3,168.8,352.2z"/>
					</g>
					<g>
						<g>
							<g>
								<path class="st6" d="M190.3,121.8c0.2,0,0.4,0,0.6,0.1c1.4,0.3,1.4,0-0.9-0.4c0,0,0,0,0,0
									C190.1,121.6,190.2,121.7,190.3,121.8z M195.9,133.2C195.9,133.2,195.9,133.2,195.9,133.2
									C195.9,133.2,195.9,133.2,195.9,133.2C195.9,133.2,195.9,133.2,195.9,133.2z M195.9,133.1
									C195.9,133.1,195.9,133.1,195.9,133.1C195.9,133.1,195.9,133.1,195.9,133.1C195.9,133.1,195.9,133.1,195.9,133.1z
									 M195.9,133.2c0.1-0.1,0.2-0.2,0.4-0.3C196.1,133,196,133.1,195.9,133.2z M195.9,133.2C195.9,133.2,195.9,133.2,195.9,133.2
									C195.9,133.2,195.9,133.2,195.9,133.2C195.9,133.2,195.9,133.2,195.9,133.2z M144.4,170.2
									C144.4,170.2,144.4,170.2,144.4,170.2C144.4,170.2,144.4,170.2,144.4,170.2L144.4,170.2z M211.8,157.5
									c-1.2-1.5-1.9-1.5-2.6-1.9c-0.7-0.3-1.3-0.6-1.7-0.9c-0.9-0.6-1.7-1.7-2-2.5c-0.1-0.4-0.1-0.7,0-0.7c0,0,0,0,0.1,0
									c0.1-0.1,0.4-0.2,0.6-0.3c0.5-0.1,1-0.2,1.8-0.3c0.2,0,0.5-0.1,0.9-0.2c0.3-0.2,0.5-0.1,1-0.6c0.4-0.3,0.7-1.1,0.7-1.6
									c0-1-0.3-1.3-0.4-1.6c-0.2-0.3-0.3-0.5-0.3-0.6c-0.6-1.2-2.2-3.2-3.9-3.9c-1.3-0.7-2.7-1.1-3.2-1.5c0-0.3,0-0.9,0-1.6
									c0.1-2.7-0.2-5.7-1.5-8.5c-0.2-0.4-0.4-0.8-0.7-1.2c-0.2-0.2-0.3-0.5-0.8-0.8c-0.3-0.2-1.3-1.1-2.8-0.4
									c-0.1,0-0.1,0.1-0.2,0.1c-0.9-2-2.2-3.5-3.2-4.9l0,0c0,0,0,0,0,0.1c1,1.4,2.1,2.9,3,4.9c0,0,0,0.1,0,0.1
									c-0.4,0.2-0.7,0.6-0.8,0.8c-0.1,0.2-0.3,0.5-0.3,0.7c-0.1,0.2-0.1,0.2-0.1,0.4c0,0.1-0.1,0.2-0.1,0.3l0,0
									c-0.1-0.2-0.1-0.5-0.2-0.7c0,0,0,0,0-0.1c-0.3-0.9-0.9-1.9-1.5-2.8c0-0.1-0.1-0.1-0.1-0.2c-0.1-0.1-0.1-0.2-0.2-0.3
									c2,5.2,2,12.7-5.1,19.3c-10.1,9.3-13.6,14.9-15.1,18.1c0,0,1.3,3.5-1.4-1.1c-2.7-4.6-4.2,3.5-6.9,7.3c-2.7,3.8-0.5,1-4-2.6
									c-3.5-3.6-9.3-7.8-10.4-13c-1-5.3-0.8-5.8-6.2,0.5c-5.5,6.4-1.9,3.4-5.2-0.5c-3.2-3.9-3.4-5.6-2.5-10.1
									c0.9-4.5-3.4-3.4-7.3-0.8c-3.9,2.6-4.4,6.7-5.8,1.2c-1.4-5.5,3.1-9.9-0.4-7.2c-1.8,1.3-3.1,1.6-3.7,0.7
									c-0.1,0.1-0.1,0.3-0.2,0.4c-1.7,4.5-2.9,5.3-7,6.3c-0.4,0.1-0.7,0.2-1,0.3c-0.1,0-0.1,0.1-0.2,0.1c-0.3,0.1-0.6,0.3-0.9,0.5
									c0,0-0.1,0-0.1,0.1c-0.3,0.2-0.5,0.4-0.8,0.6c0,0-0.1,0.1-0.1,0.1c-0.3,0.3-0.5,0.5-0.8,0.8c0,0-0.1,0.1-0.1,0.1
									c-0.2,0.3-0.5,0.6-0.7,1c0,0,0,0,0,0c-0.2,0.4-0.4,0.8-0.6,1.2c0,0,0,0.1,0,0.1c-0.4,0.8-0.8,1.8-1.1,2.8
									c0.3-0.9,0.6-1.8,0.9-2.6c1.1-2.7,3.1-5,5.7-5.6c2.4-0.6,4.1-1.7,4.6-3.2c0,0-0.1,0.1-0.6,0.6c-0.5,0.5-1.3,1.1-3.7,1.5
									c-1,0.1-3.3,0.7-4.7,2.3c-1.6,1.5-2.7,3.7-3.6,6.2c-1,2.5-1.1,5.7-2.5,8c-0.7,1.1-2.1,2.3-3.4,3.7c-0.7,0.7-1.3,1.4-2,2.2
									c-0.7,0.9-1.4,2-1.7,3.2c0,0-0.2,0.7-0.2,1.8c-0.1,1.1,0.2,2.7,0.6,4.2c0.1,0.8,0.2,1.6,0.1,2.2c-0.1,0.3-0.3,0.6-0.5,0.8
									c-0.2,0.2-0.8,0.7-1.1,1.1c-1.4,1.7-2.3,3.7-3.1,5.6c-0.4,1-0.7,2-1,3c-0.1,0.3-0.1,0.5-0.2,0.8c0,0.1,0,0.3,0,0.4
									c0,0.1,0,0.1,0.1,0.4c0,0.1,0.1,0.2,0.4,0.3c0.3,0.1,0.3,0,0.4-0.1c0.7-0.6,0.7-0.9,1-1.2c1.2-1.2,2.6-2,3.7-2.6
									c2.2-1.1,3.3-1.4,2-0.6c0,0-0.3,0.3-1.6,1.2c-0.6,0.4-1.5,1-2.5,1.9c-0.2,0.2-0.5,0.5-0.7,0.7c-0.1,0.1-0.2,0.2-0.3,0.4
									c0,0.1-0.1,0.3-0.4,0.6c-0.1,0.1-0.1,0.1-0.2,0.3c-0.2,0.1-0.1,0.3-1,0.6c-0.1,0.1-1.3,0.1-1.7-0.6
									c-0.2-0.3-0.3-0.6-0.4-0.9c0-0.2-0.1-0.5,0-0.6c0-0.5,0.1-0.8,0.1-1.1c0.1-0.6,0.3-1.2,0.4-1.8c-0.1-0.1,1.5-5,2.4-6.9
									c0.5-1,0.2-1.2-1.1,0.5c-0.6,0.8-1.5,2.1-2.3,4.1c-0.4,1-0.9,2.1-1.3,3.7c-0.1,0.2-0.1,0.5-0.2,0.8c0,0.2-0.1,0.4-0.1,0.8
									c0,0.3,0,0.5,0.1,0.8c0.1,0.4,0.3,0.9,0.5,1.2c0.2,0.2,0.1,0.3,0.5,0.7c0.4,0.4,0.9,0.8,1.5,1c0.5,0.2,1.3,0.3,1.6,0.2
									c0.2,0,0.5-0.1,0.7-0.1c0.5-0.1,1-0.4,1.3-0.6c0.2-0.2,0.4-0.3,0.6-0.5c0.3-0.3,0.4-0.4,0.5-0.6l0.3-0.4l0,0
									c-0.8-0.5-0.2-0.1-0.4-0.3l0.1,0l0.2,0.1c0.1,0.1,0.2,0.1,0.2,0.1c0,0,0.4-0.4,0.8-0.7c0,0,1-0.8,3.2-1.9
									c2.1-1.1,5-2.4,7.6-3.5c5.2-2.2,9.2-4.1,3.2-3c0,0-4.2,0.9-4.4,0.5c1-0.3,2.1-0.7,3.1-1c1.9-0.6,3.8-1.3,5.7-1.8
									c1.9-0.6,3.8-0.8,5.5,0.3c1.7,0.9,2.9,2.6,4.7,3.6c1.7,1.1,3.7,1.7,5.6,2.3c3.8,1.1,7.7,2.1,10.9,4.4
									c3.1,2.3,6.1,5.5,6.2,9.6c0.3,2.2,1.3,4.4,2.5,6.2c0.6,0.9,1.3,1.9,1.9,2.8c-0.1,0.1-0.2,0.2-0.3,0.3
									c-0.3,0.5-0.4,0.7-0.5,0.9c-0.1,0.5-0.1,0.6-0.1,0.7c0,0.4,0.1,0.2,0.1,0.2c0.4-1.1,0.8-1.2,1.3-0.4
									c0.1,0.2,0.2,0.4,0.3,0.5c0.1,0,0,0.1,0.2-0.3c0,0,0.1-0.2,0.2-0.3c0.3,0.3,0.5,0.6,0.8,1c0.2,0.2,0.4,0.4,0.7,0.6
									c0.1,0,0.3,0.1,0.5,0c0.3-0.1,0.3-0.3,0.3-0.4c0.1-0.2,0.1-0.4,0.1-0.5c0-0.5-0.1-1-0.1-1.4c0,0,0,0,0,0
									c0.2,0.1,0.6,0.3,0.3,0c-0.1,0-0.2-0.1-0.3-0.2c0,0,0-0.1,0-0.1c0-0.4,0-0.8,0-1.2c0.5,0.2,0.8,0.2,0.9-0.1
									c0-0.1,0-0.3,0-0.4c0,0,0,0,0,0c0.2,0.1,0.4,0.1,0.5,0.2c0.1,0,0.2,0.1,0.2,0.1c0.4,0.3,0.3,0.1,0.2-0.1
									c-0.1-0.2-0.2-0.4-0.4-0.7c-0.3-0.6-0.7-1.3-1.2-2.2c-0.1-0.1-0.1-0.2-0.2-0.4c0-1.7-0.1-3.3-0.5-5
									c-0.5-2.2-1.8-4.1-2.4-6.1c-0.7-2-0.9-4.1-0.2-6c0.6-1.9,1.9-4,2-6.3c0.3-2.3-0.3-4.7-1.5-6.7c-1.1-1.6-2.2-2.9-3.3-4.4
									c-0.3-0.4-0.6-0.7-0.9-1.1c-0.2-0.2-0.4-0.4-0.6-0.5c-0.3-0.1-0.4-0.5-1.3-0.4c-0.1,0-0.1,0.1-0.2,0.1
									c-0.1-0.1-0.1-0.1-0.2-0.2c0.3-0.2,0.6-0.2,0.9-0.2c0.7,0.2,0.9,0.4,1.1,0.6c0.5,0.4,0.8,0.8,1.1,1.1
									c1.3,1.6,2.6,2.9,3.9,4.8c1.2,1.9,1.9,4.1,1.9,6.2c0,2-0.4,3.8-0.8,5.2c-0.8,2.4-0.5,3.1,0.1,2.3c0-0.1,0.2-0.5,0.9-2
									c0.7-1.7,1.8-4.5,1.1-8.2c-0.3-1.8-1.1-3.7-2.3-5.3c-1.2-1.5-2-2.6-3.4-4.1c-0.3-0.4-0.7-0.8-1.2-1.2l-0.5-0.4
									c-0.3-0.2-0.4-0.3-0.9-0.5c-0.3-0.1-0.6-0.2-1-0.3c-0.4-0.1-1.2,0-1.7,0.3c-0.2,0.1-0.4,0.2-0.6,0.4c-0.3-0.3-0.6-0.7-0.9-1
									c0,0-0.4-0.4-1.6-1.3c-0.6-0.4-1.3-0.8-2.1-1.1c-0.2-0.5-0.8-1.4-1.6-2.9c-0.7-1.2-1.1-2.5-2.2-3.3
									c-0.6-0.5-1.4-0.6-2.8-1.5c-0.6-0.4-1-1-1.3-1.6c0.1-0.1,0.2-0.2,0.2-0.2c0,0.1,0.1,0.2,0.1,0.3c0.5,1,1.7,1.7,2.6,1.9
									c0.8,0.3,1.5,0.6,2.1,1.1c1.1,0.9,1.8,2.7,3.1,4.1c0.6,0.7,1.2,1.4,1.9,2.1c0.8,0.6,1.3,1.3,2.8,1.6
									c0.4,0.1,1.1-0.1,1.4-0.6c0.3-0.4,0.4-0.8,0.4-1.1c0-0.4,0-0.8,0-1.1c0.1,0.1,0.2,0.1,0.3,0.2c1.3,1,2.5,2.3,3.7,3.6
									c2.5,2.6,5,5,7.3,7.7c1.2,1.3,2.3,2.7,3.6,4c0.7,0.7,1.7,1.3,2.7,1.6c0.5,0.1,1,0.2,1.4,0.3c0.1,0,0.3,0,0.3,0.1
									c0,0,0,0,0,0.1c0,0.1-0.1,0.3-0.1,0.5c-0.1,0.5-0.2,1-0.2,1.5c0,1,0,1.9,0.1,2.8c0.1,1.8,0.1,3.4-0.2,5
									c-0.2,0.8-0.5,1.5-0.8,2.3c-0.4,0.9-0.7,1.8-1,2.7c-0.5,1.9-0.6,3.8-0.4,5.7c0.2,1.9,0.6,3.7,1.2,5.4c0.3,0.9,0.6,1.7,1,2.6
									c0.2,0.5,0.5,0.9,0.9,1.4c0.2,0.2,0.5,0.5,1.1,0.6c0.5,0.2,1.2,0,1.5-0.3c1.2-1.1,1.3-2,1.6-3c0.3-0.9,0.4-1.9,0.5-2.8
									c0.2-1.9,0.2-3.6,0.5-5.3c0.3-2.6,1.3-4.9,2.7-7c-0.3,0.4-0.5,0.8-0.8,1.2c-1.1,1.9-1.4,3.8-1.6,5.6c-0.2,3.4,0,6.4-0.4,8.4
									c-0.2,1-0.4,1.9-0.8,2.5c-0.3,0.7-0.9,1.1-0.9,1.1c1.6-1.2,2-2.6,2.6-4.2c0.5-1.6,0.7-3.6,0.8-5.4c0.3-3.8,1.1-6.8,3.8-9.9
									c0.5-0.7,1.7-1.8,2.3-3.6c0.3-0.9,0.4-2.6-0.3-3.7c-0.6-1.1-1.3-1.6-1.9-2c-2.2-1.4-3.1-1.9-3.4-2.4
									c-0.3-0.4-0.4-1.5-0.4-2.1c0-0.7,0.1-1.1,0.1-1.1c0.5-3.7,3.7-7.7,6.9-9.6c3.2-2.1,5.6-1.6,5.6-1.7c1.7,0.2,2.9,1,3.6,1.6
									c0.7,0.6,1.1,1.1,1.2,1.2c0.2,0.4-0.7-0.3-2-0.9c-1.3-0.6-2.7-0.9-3.8-0.6c-1.1,0.2-2,0.8-2,0.8c-1.2,1.1-1,1.5-0.1,1.4
									c0.9-0.1,2.2-0.2,2.8,0.1c0.6,0.2,1.9,1.2,3.1,2.7c0.3,0.3,0.6,0.7,0.8,1c0.3,0.3,0.4,0.5,0.8,1.1c0.7,0.9,1.9,1.7,1.9,1.7
									c0.5,0.4,1.4,0.8,2.4,1c1,0.3,2.3,0.2,3.2-0.1c1.9-0.6,2.6-1.3,3.2-1.8c1-1,1.4-1.5,1.9-2c0.8-1,1.3-1.7,1.8-2.2
									c1-1.1,1.8-1.8,2.3-2.4c1-1,0.8-1.3,0-1.3c-0.8,0-2.3,0.6-3.4,1.3c-1.2,0.7-2.1,1.5-2.1,1.5c-1.8,1.4-2.9,3-5.1,3.2
									c-0.2,0-0.3,0-0.4,0c0.4,0,0.8,0,1.2-0.1c1.3-0.6,1.7-1.2,2.3-1.8c1.1-1.1,2-2.2,3-3.1c2.1-1.9,4.4-2.9,7.3-4.3
									c0.7-0.4,1.4-0.7,2.1-1.3c0.4-0.3,0.8-0.6,1.2-1.1c0.2-0.2,0.4-0.6,0.6-1.2C212.2,158.7,212,157.9,211.8,157.5z
									 M151.5,179.9C151.5,179.9,151.5,179.9,151.5,179.9C151.5,179.9,151.5,179.9,151.5,179.9
									C151.5,179.9,151.5,179.9,151.5,179.9z M151.5,180.5c0,0,0,0.1,0,0.1c0-0.1,0-0.2,0-0.3
									C151.5,180.4,151.5,180.4,151.5,180.5z M151.5,179.3C151.5,179.2,151.5,179.2,151.5,179.3c0-0.1,0-0.2,0-0.2
									c0-0.1,0-0.2,0-0.4C151.5,178.9,151.5,179.1,151.5,179.3z M145.4,168.8c0.4,0.3,0.7,0.6,1,1c1.2,1.4,2.2,2.8,3.3,4.3
									c0.4,0.5,0.6,1.1,0.9,1.6c-0.1-0.1-0.1-0.2-0.2-0.4c0-0.1-0.1-0.2-0.1-0.3c-0.1-0.2-0.2-0.4-0.3-0.5
									c-0.1-0.1-0.1-0.2-0.1-0.2c-0.2-0.3-0.4-0.5-0.6-0.8c-0.2-0.3-0.4-0.6-0.7-0.8c-1.7-2.1-2.9-3.8-3.6-4c0,0,0,0,0,0
									c0,0-0.1-0.1-0.1-0.1C145.1,168.5,145.2,168.7,145.4,168.8z M127.6,153.1C127.6,153.1,127.6,153.1,127.6,153.1
									c-0.4,0.4-0.9,0.8-1.1,1C126.7,153.8,127,153.6,127.6,153.1C127.6,153.1,127.6,153.1,127.6,153.1z M143.5,169.6
									c0.1,0.1,0.2,0.2,0.2,0.2c0,0,0,0,0,0.1c0,0.1,0,0.1,0,0.2c-0.1-0.1-0.2-0.2-0.2-0.3C143.5,169.7,143.5,169.6,143.5,169.6z
									 M143.3,170.6C143.4,170.6,143.4,170.6,143.3,170.6C143.3,170.6,143.3,170.6,143.3,170.6
									C143.3,170.6,143.3,170.6,143.3,170.6z M143.2,170.6L143.2,170.6c0,0,0.1,0,0.1,0c0.1,0.1,0.2,0.2,0.3,0.3
									c0.2,0.1,0.4,0.3,0.5,0.2c0.1-0.1,0.2-0.3,0.2-0.5c0-0.1,0-0.2,0-0.4c0,0,0,0,0,0c0,0,0,0,0,0c0,0,0,0,0,0l0,0
									c0,0,0,0,0.1-0.1c0,0.7-0.1,1.1-0.3,1.1c0,0,0,0,0,0c-0.1,0-0.1,0-0.2,0c0,0,0,0,0,0c-0.1,0-0.1-0.1-0.2-0.1c0,0,0,0,0,0
									c-0.1-0.1-0.2-0.1-0.3-0.2c0,0,0,0,0,0C143.4,170.8,143.3,170.7,143.2,170.6C143.2,170.6,143.2,170.6,143.2,170.6z
									 M142.3,173.5c2.2,6.5-0.1,8.1-4,9c-4.4,1-10.6-0.8-13.7-2.9c-3-2.1-4.3-5.1-4.3-5.1c-0.2-3.2,3.1-7.7,8-9.2
									C133.3,163.8,140.1,167,142.3,173.5z M141.1,166.7c0,0,0.3,0.4,0.8,1c0,0,0,0,0,0.1c-0.2-0.3-0.4-0.5-0.6-0.8
									c-0.3-0.3-0.5-0.7-0.8-1C140.8,166.2,141,166.4,141.1,166.7z M141.7,168.5l0,0.2c-0.3-0.3-0.5-0.7-0.8-1.1c0,0,0,0,0,0
									c0-0.1-0.1-0.1-0.1-0.2c-0.3-0.4-0.6-0.8-0.9-1.2c-2.9-3.7-11.5-3.7-11.7-5.8c-0.2-2.1-4.5-5.5-1.7-7.4
									c0.2-0.1,0.4-0.3,0.6-0.4c0,0,0,0,0.1-0.1c0.2-0.1,0.3-0.3,0.5-0.4c0,0.1,0,0.2,0,0.2c-0.6,0.6-1.3,1-1.7,1.5
									c-0.7,1.6,0.8,3.2,1.6,4.7c0.2,0.4,0.5,0.8,0.6,1.2c0.2,0.5,0.1,0.9,0.5,1.2c0.6,0.5,1.5,0.8,2.4,1.1c1.7,0.5,3.5,1,5.1,1.6
									C138.6,164.3,140.2,166.5,141.7,168.5z M131.2,157.6c1.3,0.6,1.8,0.7,2.1,0.9c0.3,0.2,0.6,0.4,1,0.9c0.4,0.6,1.3,1.9,2,2.8
									c0,0,0.1,0.1,0.2,0.2c-0.1,0-0.2-0.1-0.3-0.1c-1.6-0.4-3.4-0.6-5-1c-0.8-0.2-1.6-0.5-2-0.8c-0.1-0.1-0.2-0.2-0.2-0.2
									c0-0.1,0,0-0.1,0c0,0,0,0,0,0c0,0,0,0,0,0c0,0,0-0.1,0.1-0.1c-0.1-0.5-0.2-1-0.3-1.3c0,0-0.6-1.3-1-2.3
									c-0.4-1-0.3-1.7,0-1.6c0.1,0.1,0.3,0.3,0.3,0.3c0,0,0,0,0,0l0.3-0.2c0,0,0.1,0,0.1-0.1C129,156.1,130.1,157.2,131.2,157.6z
									 M129.5,151c0.1-0.1,0.1-0.1,0.2-0.2c0,0,0,0.1,0,0.1c0,0,0,0,0,0.1c-0.1,0.1-0.1,0.1-0.2,0.2
									C129.6,151.2,129.5,151.1,129.5,151C129.5,151.1,129.5,151.1,129.5,151z M130.5,151.3c-0.2-0.8-0.5-1.9-1-1.2
									c-0.3,0.3-0.6,0.6-0.9,1c-0.1,0.1-0.3,0.2-0.5,0.2c0,0,0,0,0,0c0.2-0.2,0.4-0.5,0.6-0.7c0,0,0,0,0,0
									c0.1-0.1,0.2-0.2,0.3-0.3c0,0,0,0,0,0c0.1-0.1,0.2-0.2,0.2-0.2c0,0,0,0,0.1,0c0.1-0.1,0.1-0.1,0.2-0.1c0,0,0,0,0.1,0
									c0.1,0,0.1-0.1,0.2-0.1c0,0,0,0,0,0c0.1,0,0.1,0,0.2,0c0,0,0,0,0.1,0c0,0,0.1,0,0.1,0.1c0,0,0,0,0.1,0.1
									c0,0,0.1,0.1,0.1,0.2c0,0,0,0,0,0c0.1,0.1,0.1,0.2,0.2,0.3c0,0,0,0.1,0.1,0.1c0,0.1,0.1,0.2,0.1,0.3c0,0.1,0,0.1,0,0.2
									c0.1,0.2,0.1,0.4,0.2,0.6c0,0,0,0,0,0C130.7,151.6,130.6,151.4,130.5,151.3z M157.2,173.5c-2.3-2.7-4.8-5.2-7.3-7.8
									c-1.2-1.3-2.5-2.6-3.8-3.8c-0.6-0.5-1.5-1.3-1.9-1.1c-0.3,0.4,0.1,1.5-0.2,2.5c-0.2,0.7-1.1,0.7-1.5,0.5
									c-0.5-0.2-0.8-0.5-1.2-0.7c-0.7-0.6-1.3-1.2-1.9-1.9c-1.2-1.3-2.1-3-3.1-4.3c-0.6-0.6-1.3-1.2-2.1-1.5
									c-0.8-0.3-1.7-0.6-2.4-1.3c-0.3-0.3-0.6-0.7-0.7-1.1c0.1-0.1,0.1-0.1,0.2-0.2l0,0c0.8,1.9,2.1,1.8,3.7,2.6c0,0,0,0,0,0
									c0.1,0.1,0.3,0.2,0.4,0.3c0,0,0.1,0,0.1,0.1c0.1,0.1,0.2,0.2,0.4,0.3c0,0,0.1,0.1,0.1,0.1c0.1,0.1,0.2,0.2,0.3,0.3
									c0.1,0.1,0.1,0.1,0.2,0.2c0.1,0.1,0.2,0.3,0.3,0.4c0,0.1,0.1,0.1,0.1,0.2c0.2,0.2,0.3,0.5,0.5,0.7c2.7,4.4,7,8,6.5,4.1
									c-0.5-4,3.7,1,7.8,5.1c0.4,0.4,0.8,0.8,1.2,1.2c0.1,0.1,0.3,0.3,0.4,0.4c0.2,0.2,0.4,0.4,0.6,0.7c0.4,0.4,0.8,0.8,1.1,1.2
									c0,0,0,0,0,0C155.8,171.5,156.6,172.5,157.2,173.5c0.4,0.4,0.8,0.8,1.1,1.2C158,174.3,157.6,173.9,157.2,173.5z
									 M195.4,131.3c0.1-0.1,0.1-0.2,0.2-0.4c0.1-0.2,0.2-0.3,0.2-0.5c0-0.1,0.1-0.1,0.1-0.3c0.2-0.4,0.1-0.5,0.6-1
									c0.1-0.1,0.2-0.2,0.3-0.2c0.3,0.8,0.5,1.7,0.6,2.6c-0.2,0.5-0.5,0.9-0.7,1.3c0,0-0.1,0-0.1,0c0,0,0,0-0.1,0
									c0.1,0,0.1,0,0.2,0c-0.1,0.1-0.1,0.2-0.2,0.3c0,0,0,0,0,0c-0.1,0.1-0.1,0.1-0.2,0.2c0,0,0,0,0,0c-0.1,0.1-0.1,0.1-0.2,0.1
									c0,0,0,0,0,0c-0.2,0.1-0.4,0-0.5-0.2c0,0,0,0,0,0c0-0.1-0.1-0.2-0.1-0.3c0,0,0,0,0,0c0-0.1,0-0.3,0-0.5c0,0,0.1,0.1,0.1,0.1
									c0,0-0.1-0.1-0.1-0.1c0,0,0-0.1,0-0.1C195.5,132,195.4,131.6,195.4,131.3L195.4,131.3z M173.7,183.2
									c0.7,0.5,1.7,1.2,1.8,2.4c0.1,1.2-0.6,2-1.1,2.8c-2.4,2.7-4.4,5.6-5,9.1c-0.7,3.4-0.2,7.1-1.7,10.6
									c-0.2,0.4-0.5,0.9-1.1,1.2c-0.7,0.2-1.3-0.3-1.6-0.7c-0.6-0.8-0.9-1.7-1.2-2.5c-0.6-1.6-1.1-3.2-1.3-4.9
									c0-0.5,0.1-1.1,0.2-1.6v0c0,0.5,0.1,1,0.2,1.6c0,0,0,0.1,0,0.1c0.1,0.5,0.2,1,0.3,1.5c0,0.1,0,0.1,0,0.2
									c0.1,0.5,0.3,1,0.4,1.5c0,0.1,0,0.1,0.1,0.2c0.2,0.5,0.4,1.1,0.6,1.6c2,5.2,3.8,1.7,4.2-3.7c0.3-5.5,0.6-8.8,5.1-13.9
									c0.2-0.3,0.4-0.5,0.6-0.7c0,0,0-0.1,0.1-0.1c0.2-0.2,0.3-0.4,0.4-0.6c0,0,0-0.1,0.1-0.1c0.1-0.2,0.2-0.4,0.2-0.5
									c0,0,0-0.1,0-0.1c0-0.2,0.1-0.3,0.1-0.5c0,0,0,0,0-0.1c0-0.1,0-0.3,0-0.4c0,0,0,0,0,0c0-0.1-0.1-0.3-0.1-0.4c0,0,0,0,0-0.1
									c-0.1-0.1-0.1-0.2-0.2-0.3c0,0,0-0.1-0.1-0.1c-0.1-0.1-0.2-0.2-0.3-0.3c0,0-0.1-0.1-0.1-0.1c-0.1-0.1-0.2-0.2-0.3-0.2
									c-0.1-0.1-0.2-0.1-0.2-0.2c-0.1,0-0.1-0.1-0.2-0.1c-1.1-0.7-2.4-1.4-3.3-2.6l0.1-0.3c0-0.1,0-0.2,0.1-0.3
									C171,181.5,172.4,182.3,173.7,183.2z M211.3,159.2c-0.4,1.2-1,1.4-1.5,1.8c-1.1,0.7-2.1,1.2-3.2,1.8c-2.2,0.9-4.1,2-5.8,3.5
									c-0.9,0.7-1.7,1.5-2.4,2.4c-0.8,0.8-1.4,1.8-2.8,2.6c-0.8,0.5-2,0.1-2.5-0.4c-0.6-0.5-0.9-1-1.3-1.4
									c-0.7-0.9-1.4-1.8-2.2-2.6c-1.6-1.6-3.5-2.8-5.7-3c-2.2-0.1-4.3,0.7-6.3,1.9c-2,1.2-3.7,2.7-5.1,4.5
									c-1.3,1.8-2.4,3.9-2.7,6.1c-0.1-0.2-0.2-0.5-0.4-0.7c0.2-0.9,0.5-1.9,1-2.9c0,0,0-0.1,0-0.1c0.5-1,1.1-1.9,1.8-2.9
									c0.1-0.1,0.1-0.1,0.2-0.2c0.3-0.4,0.6-0.8,1-1.1c0.1-0.1,0.1-0.2,0.2-0.2c0.4-0.4,0.8-0.8,1.3-1.2c0.1-0.1,0.2-0.1,0.2-0.2
									c0.4-0.3,0.8-0.6,1.2-0.9c0.1-0.1,0.3-0.2,0.4-0.3c0.5-0.3,1-0.7,1.6-1c7.1-3.8,11.2,0.6,14.4,4.8c3.3,4.2,3.6-2.9,12.4-7
									c8.8-4.1,4.2-4.4,1.5-6c-2.7-1.6-4.5-5.2-2.2-6.6c2.3-1.4,4.9-0.2,3.7-2.1c-1.2-1.9-1.6-2.9-5.1-4.2c-3.5-1.3-2.4-2-2.7-6.3
									c-0.2-4.3-2.2-8.1-2.8-6.4c0,0.1,0,0.1-0.1,0.2c-0.1-0.8-0.3-1.5-0.6-2.2c0.1-0.1,0.2-0.1,0.4-0.2c0.4-0.1,1-0.1,1.2,0
									c0.3,0.1,0.5,0.2,0.7,0.3c0.1,0.1,0.2,0.2,0.3,0.3c0.4,0.4,0.6,0.7,0.7,1c0.3,0.6,0.5,1.1,0.7,1.6c0.7,2,1,4.1,1,6.2
									c0,1-0.1,2.1-0.1,2.8c0,0.4,0.1,0.5,0.1,0.5c0,0,0.2,0.2,0.6,0.4c1.4,0.7,3.9,1.3,5.4,3.3c0.4,0.5,0.7,0.9,0.9,1.4
									c0.2,0.5,0.6,0.5,0.8,2c0.1,0.4-0.2,1.2-0.7,1.4c-0.4,0.3-0.7,0.3-0.8,0.4c-0.4,0.1-0.6,0.1-0.9,0.1
									c-0.5,0.1-0.9,0.1-1.3,0.2c-0.4,0.1-0.7,0.2-1,0.4c-0.2,0.1-0.3,0.2-0.4,0.4c-0.2,0.3-0.1,1.1,0.3,1.7
									c0.4,0.8,1.1,1.6,1.9,2.2c0.8,0.6,1.8,1,2.9,1.6c0.3,0.2,0.6,0.4,0.9,0.7C211.2,157.7,211.5,158.6,211.3,159.2z
									 M143.2,170.6L143.2,170.6C143.2,170.6,143.2,170.6,143.2,170.6z M195.7,132.8c0.1,0.1,0.1,0.2,0.1,0.3
									C195.8,133.1,195.8,132.9,195.7,132.8z M195.7,132.7c0,0-0.1-0.1-0.1-0.2c0.1,0.1,0.1,0.2,0.2,0.3
									C195.7,132.8,195.7,132.8,195.7,132.7z"/>
							</g>
						</g>
						<path class="st14" d="M101.6,160.5c0,0-6.6-9.3-6-22.6c0.6-13.4,2.6-24.7,4.8-31.2c2.2-6.5,3.1-7.8,3.3-10.9
							c0.1-3.1,3.8-2.4,6.4,2.3c2.6,4.7,4.9,13.4,7.9,16.6c3,3.2,4.8,5.1,4.9,6.7c0.1,1.6,1.4,5.6,1.4,5.6s5.1-10.6,14.4-12.9
							c3.5-0.6,5.3,0.5,10.8-1.5c5.6-1.9,10-4,17.1-3c3.7,0.3,10.7,0.9,16.1,5.5c5.4,4.6,5.6,4.5,8.3,1.8
							c2.6-2.7,6.3-12.3,10.2-17.9c3.8-5.7,5.1-7.3,7-7.3c1.9,0.1,1.1,2.6,2.5,7.7c1.3,5,6.6,17.1,7.4,31.1
							c0.9,13.9-0.8,25.6-4.7,27.5c-4,1.9-1.8,1.6-0.3,2.8c1.5,1.2,10.1,9.9,10.5,12.7c0.4,2.8-0.2,5.6-0.2,6.6
							c-0.1,1,5.1,12.3,4.4,14c-0.7,1.7-1.5,1.1-3.3-0.5c-1.8-1.6,2.2,3.6,2.7,6.6c0.5,3-0.9,0.3-3.6,0.6
							c-2.7,0.3-15.5,8.2-22.9,7.3c-7.4-0.8-11.9-5.1-16.6-4.6c-4.7,0.5-9.5,10.4-16,17.9c-6.5,7.5-18,8.5-24.9-2.4
							c-6.9-10.9-9.2-18.1-18.5-13.7c-9.3,4.3-18.7,3.3-24.6-0.8c-6-4.1-11.8-5.5-13.6-2.4c0,0-0.8-2.5,0.9-5.1
							c1.6-2.6,3.1-5.9,3.1-5.9l-3.6,1.7c0,0-0.2-3.9,1.8-7.8c2-3.9-0.2-10.1,3.3-15.7C95.2,163.6,101.6,160.5,101.6,160.5z"/>
						<path class="st16" d="M209.1,90.5c0.3,1.7,1.7,8.7,3.3,11.9c1.6,3.2,5.1,16.3,5.4,25.4c0.3,9-0.2,18.4-1.1,21.7
							c-0.9,3.3-2.5,7.8-3.9,8.9c-1.4,1.1-1.6-0.5-0.1-2.7c0,0,2.1-4.3,3-9.4c0.9-5.1,1.2-15.1,0.8-19.8c-0.5-4.8-1.9-13-3.6-17.9
							c-1.7-4.9-3.6-9-4.2-11.3c-0.6-2.2-1.2-4.4-1.1-5.7C207.9,90.4,209.1,90.5,209.1,90.5z"/>
						<path class="st6" d="M224.7,194.8c-2.4,0.2-5.3,0.5-8.2,0.2c-2.9-0.3-2,0.4-0.9,1.1c1.1,0.7,0,1.3-3,1.5c-3,0.2-3.1,0-5.9-0.3
							c-2.8-0.3-3.5,0.1-3.2,1.2c0.3,1.1-3.3-0.5-7.9,0.2c-4.6,0.7-6-0.2-9.5,0.1c-3.5,0.3-6,4-7.9,6.9c-1.9,2.9-6.8,12.3-9.4,14.8
							c-2.6,2.5-5,4.3-9.6,4.3c-4.6,0-8.2-2.7-11.5-6.4c-3.3-3.7-6.9-11-9-13.3c-2.1-2.3-0.8-9-7.2-6.2c-6.4,2.8-6,2.8-10,3.6
							c-4,0.8-5.6-2.1-7.2-0.6c-1.6,1.4-3.9,0.6-4.1-1.4c-0.2-2,1-6.4-1.2-6.2c-2.2,0.2-1.2-4.6-4.6-2.1c-3.4,2.5-3.7,1.9-4.3,0.3
							c-0.6-1.6-4.4,0.6-5.7,2.7c-1.3,2.1-1.3,2.8-3.6,3.6c-2.3,0.8-3,2.3-3,4.2c-0.1,2,0.2,3.8,1.1,1.9c0.9-1.9,0.6-3.5,5.9-3.5
							c5.3,0,17.7,6.6,21.5,6.2c3.8-0.4,9-2.5,11.3-3.3c2.3-0.7,6.8-2.5,11.6,6.1c4.8,8.6,11.2,17.6,20.7,17.4
							c9.5-0.2,14.7-11.8,17.7-16.6c3-4.8,4.5-8.3,7.6-8.6c3-0.3,9,1.2,14.8,2.2c5.8,1,10.9-1.3,13.6-2.9c2.7-1.6,5.7-3.1,8.7-3.7
							c3-0.5,4.5-0.6,5.9,1.1c1.4,1.7,2.4,3.1,1.6,0.2C228.9,196.5,228.4,194.4,224.7,194.8z"/>
						<path class="st6" d="M118.4,130.6c0.8-2.5,0.9-4.6-1.1-6.4c-2-1.9-4.2-6.2-4.5-11.2c-0.3-5-3.4-10.4-5.4-14
							c-2-3.6-1.8-4.1-3-4.1c-1.2,0,0.6-2.6,2.7-0.3c2.1,2.3,5.3,6.7,7.4,10.3c2.1,3.7,2.8,7,5.5,9.8c2.7,2.8,2.6,4.3,4.2,4.2
							c1.6-0.1,1.5,1.2,0.1,2.1c-1.4,0.9-2.8,0.7-3.3,3.1c-0.5,2.4-0.3,4.3-1.2,5.8C118.8,131.3,118.4,130.6,118.4,130.6z"/>
						<path class="st6" d="M217.1,198.4c3.6-0.7,5.8,0.7,8.1,0.7c2.3,0,2.9-0.2,0.1,1.3c-2.8,1.5-5.9,0.2-8.4,2
							c-2.4,1.7-8,6.5-14.6,6.2c-6.6-0.3-9.5-2.6-13.6-3.7c-4.1-1.2-6.2-1.7-8.1-0.6c-2,1.2,1-1.6,5.3-2.2c4.3-0.6,7.8,1.7,13.5,2.6
							c5.7,0.8,11.6-1.6,8.6-2.2c-3-0.6-1.2-1.2,2.7-1.4c3.8-0.2,6.5-0.8,5.2-1.5C214.6,198.8,217.1,198.4,217.1,198.4z"/>
						<path class="st6" d="M129.1,204c-3.5,0.6-10,4.5-15.6,4.4c-5.6-0.1-8.6-1.9-10.9-2.4c-2.3-0.6-2.3-0.7-0.6-1.2
							c1.7-0.5-7-1-4.4-2c2.6-0.9-4.8-0.1-5.8-1c-1-0.9-1.5-1.3-3.6-0.7c-2.1,0.6-0.7-0.5,1.3-1.9c2-1.4,5.2-1.5,8.6-1.4
							c3.4,0.1,6.3,0.8,8.5,3.5c2.2,2.7,4.8,3.5,9.9,3c5.1-0.5,8.6-0.6,10.8-1.3c2.2-0.7,5.5-1,5.7,0.3
							C133.2,204.8,129.1,204,129.1,204z"/>
						<path class="st6" d="M191.1,133.2c-0.8-2.9-0.8-5.3,1.5-7.3c2.3-2,5.1-6.9,5.6-12.6c0.6-5.7,4.4-11.7,6.8-15.7
							c2.4-4,2.2-4.6,3.6-4.6c1.4,0-0.5-3-3-0.5c-2.5,2.5-6.3,7.3-8.8,11.4c-2.5,4.1-3.5,7.8-6.7,10.9c-3.2,3.1-3.1,4.8-4.9,4.5
							c-1.8-0.2-1.7,1.3-0.2,2.4c1.5,1.1,3.1,0.9,3.5,3.7c0.4,2.8,0.2,4.9,1.1,6.7C190.6,134.1,191.1,133.2,191.1,133.2z"/>
						<g>
							<g>
								<path class="st6" d="M164.5,210.8c-2.3-0.8-2.1-2.2-5.7-2.2c0,0-1.2,1.8-2.9,1.6c-1.7-0.2-3.3,2.6-1.6,4.5
									c1.7,1.9,1.9,2.1,4.3,3.4c2.4,1.3,4.7,0.3,6.2-2.2C166.4,213.2,166.7,211.6,164.5,210.8z M162.9,213.7
									c-0.9,1.4-2.2,2-3.5,1.3c-1.4-0.7-1.5-0.8-2.5-1.9c-1-1.1-0.1-2.6,0.9-2.5c1,0.1,1.7-0.9,1.7-0.9c2.1,0,2,0.8,3.2,1.3
									C164,211.4,163.8,212.3,162.9,213.7z"/>
							</g>
						</g>
						<path class="st18" d="M171.5,179.6c-1.8-2.7-1.3-8.1,2.2-12c3.5-3.8,11.2-4.5,16.6-0.1c5.4,4.4,4.1,7,1.2,9.8
							c-3.3,3.1-9.7,4.8-13.5,4.5C174.2,181.6,171.5,179.6,171.5,179.6z"/>
						<path class="st6" d="M200.3,141.2c-0.6-2.6,0.5-5.3,4.3-4.8c3.9,0.6,3.1-0.5,2.6-3.2c-0.5-2.7-0.2-3.1-2.8-3.8
							c-2.6-0.7-2-1.1-2.3-3.2c-0.3-2.1-0.5-3.8,1.7-3.8c2.2,0,2-0.4,0.9-2.9c-1.1-2.5-0.5-6.1,0.3-7.1c0.8-1.1,1.1-0.2,2.9,1.4
							c1.9,1.7,4.6,4.5,4,6.1c-0.6,1.5,2.2,3.1,1.7,5.2c-0.5,2.1-1.7,3.7-0.6,5.2c1.1,1.5,2.6,6.4,2.5,9.4c-0.2,3-0.6,8.3-2.5,10.9
							c-1.9,2.6-2.9,2.1-3.1,4.6c-0.2,2.5-0.3,3.2-1.2,1.8c-0.9-1.4-1.9-1.8-1.2-4.5c0.6-2.7,0.2-4.6-2-5.2
							c-2.2-0.6-1.7-5.7-3.4-5.5C200.5,142.2,200.3,141.2,200.3,141.2z"/>
						<path class="st6" d="M101.5,160c0,0-6.2-5.6-5.7-14.6c0.5-9.1,2.8-15,5.1-19.2c2.3-4.2,2.2-4.6,2.9-5.8c0.8-1.2,2.6-2,5,0.8
							c2.3,2.8,3.9,6.5,1.7,7.5c-2.2,1-5.7,2.5-6.8,3.9c-1.1,1.3-1.2,1.7-0.9,2.5c0.3,0.8,3.7,0.3,3.6,1.4c-0.2,1.1,4.6,1.1,3.3,2.5
							c-1.4,1.3-2.9,2.5-0.6,2.8c2.3,0.3,5.9,0.1,3.6,0.8c-2.3,0.7,2.5,0.6-1.1,1.3c-3.6,0.8-1.7,1.4-3.6,2.1
							c-1.9,0.7-3.1,1.3-1.2,2.2c1.9,0.8,1.4,1.4,3.9-0.1c2.5-1.5,3.8-1.6,1.3,0.4c0,0-2.4,0.9-3.3,2.4c-0.9,1.4-1.2,1-2.2,2.9
							c-0.9,1.9,0,1.3-2.5-0.1c-2.5-1.4-3.1-2.7-3.6-4.6c-0.5-1.9-0.6-3.6,0.5-4.8c1.1-1.2,1.9-1.4-0.2-1.3c-2,0.1-1.2-0.6,0.5-1.4
							c1.7-0.8,1.4-2.2,1.1-3.6c-0.3-1.4,0.8-2.3-0.9-2.4c-1.7-0.1-0.2-1.6,0.9-3.3c1.1-1.7,2.2-3.1,2.3-5.1c0.2-2,0-3.9,0-3.9
							s-7.1,11.3-7.3,18.9c-0.2,7.5,0.8,11.3,2.2,13.8c1.4,2.5,2.6,3.3,3.1,4.2C102.9,160.9,101.5,160,101.5,160z"/>
						<path class="st6" d="M194.8,165.1c5.3-2.6,15.8-6.5,21.4-0.9c5.6,5.6,5.3,9.1,7,13c1.6,4,1.2,0.7-3.7-2.8
							c-4.9-3.5,6,7.4,6.7,14.9c0.7,7.4,0.7,1.2-4.2,0c-4.9-1.2-8.1-5.1-12.3-10c-4.2-4.9-10.5-1.2-18.1,2.1
							c-7.7,3.3,0.7-2.8,5.1-5.6c4.4-2.8,3.7-3.3,0.2-6.3C193.4,166.5,194.8,165.1,194.8,165.1z"/>
						<path class="st6" d="M99,181.3c-5.9,2.3-9.1,3.6-11.3,7.5c-2.2,3.8-1.2-6.7,2.6-8.8c3.8-2.2-1.5-7.1,4.7-14.4
							c6.3-7.2,7.5-7.3,11-7.5c3.6-0.2,1.2-0.1-1.9,4.1c-3.1,4.1,2.4-0.1,7.8,0.9c5.4,1-5,2.2-7.5,5.8c-2.5,3.6,4.5,1,9.4,3.5
							c4.9,2.5-6.2,1-9.1,3.4C101.8,178.2,104.9,179.1,99,181.3z"/>
						<g>
							<g>
								<path class="st6" d="M132.9,170.8c-1.6,1.1-3,0.2-3.6-0.7c-0.5-0.7-1.6-0.2-2.2-1c-0.1,0.6,0,1.3,0.2,2.1
									c0.4,1.6-0.1,0.3-0.1,0.3s1.7,5.7,3.8,6c2.1,0.3,3.8-5.3,4.3-7.4c0-0.1,0-0.1,0-0.2C134.5,170.1,133.6,170.3,132.9,170.8z"
									/>
							</g>
						</g>
						<g>
							<g>
								<path class="st6" d="M184.9,168.3c-0.3,0.2-0.6,0.4-0.9,0.4c-1,0.3-1.6,2.4-2.8,2c-1.2-0.3-1.6-1.2-2.3-1.5
									c-0.5-0.2-1.2,0-1.7-0.1c-0.1,0.1-0.2,0.3-0.3,0.4c-1,1.8,1.2,4.4,2.8,6c1.6,1.7,3,2,3.7,0.6c0.7-1.4,1.2-3.1,2.5-5.3
									C186.7,169.6,185.9,168.7,184.9,168.3z"/>
							</g>
						</g>
						<g>
							<g>
								<path class="st6" d="M143.7,178.3c-1.8-4.7-3.7-9.8-7.4-13.4c-5.1-5.1-13.3-2.3-15.2,4.5c-0.4,1.3,2.2,3.4,1.9,4.6
									c1.2-4.3,5.8-8.1,10.4-7.3c2.6,0.4,4.6,2.5,6.2,4.4c0.9,1.1,1.6,2.3,2.3,3.5c0.8,1.4,2.7,6.1,0.5,0.4
									C142.8,176.1,143.2,177.2,143.7,178.3C143.9,178.9,144,179.2,143.7,178.3L143.7,178.3z"/>
							</g>
						</g>
						<g>
							<g>
								<path class="st6" d="M119.6,175c2.1,4.1,5.7,8.7,10.4,10.1c4.6,1.3,11.3-1.1,13-5.9c0.5-1.4-0.8-3.6-0.3-5
									c-1.7,4.8-8.4,7.2-13,5.9c-4.6-1.3-8.3-5.9-10.4-10.1C120,171.3,118.9,173.6,119.6,175L119.6,175z"/>
							</g>
						</g>
						<g>
							<g>
								<path class="st6" d="M166.5,173.4c2.8,4.6,7.6,9.1,13,10.2c4.9,0.9,12.8-0.9,15-6c0.3-0.6-0.8-1.8-0.6-2.4
									c-2.2,5.2-10.1,6.9-15,6c-5.5-1-10.2-5.5-13-10.2C166.3,171.6,166,172.7,166.5,173.4L166.5,173.4z"/>
							</g>
						</g>
						<g>
							<g>
								<path class="st6" d="M169.6,176.2c2-4.3,5.4-9.2,10-10.8c4.8-1.6,11.4,1.3,13,6.3c-0.2-0.6,1-1.7,0.8-2.4
									c-1.6-5-8.2-7.9-13-6.3c-4.6,1.5-8,6.5-10,10.8C170.1,174.6,170,175.4,169.6,176.2L169.6,176.2z"/>
							</g>
						</g>
						<g>
							<g>
								<path class="st6" d="M189.1,121.2c-3.7-3.8-10.5-9.2-22-10.1s-16.2,4.3-25.6,3.7c-9.5-0.5-18.2,9.4-20.6,16.3
									c-2.4,6.9-0.6,8.3,2.8,5.8c3.4-2.6-1,1.7,0.4,7c1.4,5.3,1.9,1.4,5.7-1.2c3.8-2.6,8-3.6,7.1,0.7c-0.9,4.4-0.8,6,2.4,9.8
									c3.2,3.8-0.2,6.7,5.1,0.5c5.3-6.2,5.1-5.7,6.1-0.5c1,5.1,6.7,9.2,10.1,12.7c3.4,3.5,1.3,6.3,3.9,2.6c2.7-3.7,4-11.6,6.7-7.1
									c2.7,4.5,1.4,1.1,1.4,1.1c1.4-3.1,4.8-8.5,14.6-17.6C196.9,135.8,192.7,125,189.1,121.2z M165.6,141.8
									c-1.3,5.3-1.9,10.9-3.6,5c-1.8-6-2.3-1.7-3.3,3.4c-1,5.1-1.5,5.9-2.3-0.1c-0.8-6-1.6-6.7-1.4-8.9c0.3-2.2-2.8-4.5-4.9-0.5
									c-2.1,3.9-2,1-0.8-4.2c1.3-5.2-7.2,5.9-7.9,9.7c-0.8,3.8,0.8-7.6,4-12.5c3.3-4.8-3.9-2.8-7.3,1.7c-3.4,4.5-0.3-0.5,0.4-3.9
									c0.6-3.4-0.6-8.1,6.8-9.3c7.4-1.1,10.1,7.5,12.9,7.3c2.9-0.3,2,2.5,2,2.5c1.8,4.6,2.5,5.5,2.8,7c0.3,1.5,1.1,3.1,1.3,0.4
									C164.5,136.6,166.8,136.5,165.6,141.8z M175.2,135.1c-0.8,5.6-1,10.2-0.4,13.7c0.6,3.5-2.2-8.2-2-12.3
									c0.2-4.1-1.2-6.7-2.6-9.2c-1.5-2.5-1.8-4.1-1.8-4.1C170.5,123.2,176,129.6,175.2,135.1z M175.5,123
									c-5.4,0.8-6.2-3.1-6.2-3.1c3.8-0.8,11.9,0.5,12.7,8.6c0.8,8,0.8,8,0.8,8S181,122.2,175.5,123z"/>
							</g>
						</g>
					</g>
					<g>
						<defs>
							<rect id="SVGID_00000013886478944074935090000004079309482400248464_" x="65.9" y="203.3" width="174.6" height="104.3"/>
						</defs>
						<clipPath id="SVGID_00000149360243044271250190000002011497620522058903_">
							<use xlink:href="#SVGID_00000013886478944074935090000004079309482400248464_"  style="overflow:visible;"/>
						</clipPath>
						<g style="clip-path:url(#SVGID_00000149360243044271250190000002011497620522058903_);">
							<g>
								<path class="st6" d="M213.7,231.4c3.4-1.9,7.5-10.5,9.2-17.7c1.7-7.2-0.9-12.2-1.4-13.8c-0.6-1.7-2.3-2.5-2.9-5.3
									c-0.6-2.8-1.4-3.3-4-6.1c-2.6-2.8-3.4-6.9-3.2-11.6c0.3-4.7,0.9-10.2,0.9-10.2H99.6c-4.9,4.4-7.7,10-5.7,16.9
									c2,6.9-3.2,6.1-3.2,13c0,6.9,2.6,13.3,6.3,18s4.6,5.8,4.9,7.5c0.3,1.7,0,2.2-1.7,3.6c-1.7,1.4-1.7,1.9,1.4,1.7
									c3.2-0.3,6-4.2,6.6-3.3c0.6,0.8,0.9,2.5-1.1,5.3c-2,2.8-1.4,7.5,1.4,9.1c2.9,1.7,4.6-1.9,5.2,0.6c0.6,2.5,4.6,1.9,4,5
									c-0.6,3,2,8.6,0.6,8.3c-1.4-0.3-2,0.6-5.2,1.9c-3.2,1.4,5.2,3.9,8.3,3.9c3.2,0-1.1,5.5-3.7,9.1c-2.6,3.6,1.1,5.8,3.4,7.8
									c2.3,1.9,1.7-1.4,0-4.2c-1.7-2.8,1.7-3.9,3.4-8.9c1.7-5-0.6-7.8,1.1-8.3c1.7-0.6,1.1-0.3,4.6,3.3c3.4,3.6,0.9,8.3-3.2,13.6
									c-4,5.3-3.4,7.8-0.6,13.3c2.9,5.5,4,5.5,2.3,9.1c-1.7,3.6-2.6,5.5-0.3,4.4c2.3-1.1,4-4.4,4.6-8.6c0.6-4.2,1.4-1.7,3.7,1.4
									c2.3,3,0.9,2.8,2.6,8.3c0,0,2.9,2.5,4.6-0.3c1.7-2.8,0.9-6.9-2-11.1c-2.9-4.2,0.3-8.9,3.7-13.6c3.4-4.7,5.2-10.5,2.6-14.4
									c-2.6-3.9-3.2-8.3-2.3-15.5c0.9-7.2,9.2-9.7,9.5-12.5c0.3-2.8-1.4-6.6-5.4-6.9c-4-0.3-4.3-1.4-6.6-5s-3.4-4.7-7.5-10.2
									c-4-5.5-7.5-7.8-8.6-11.9c-1.1-4.2-4-3.3-3.4-6.6c0.6-3.3-0.9-13.8-0.9-13.8h69.1c0,0-1.4,3.9-1.1,8.3
									c0.3,4.4-0.3,6.9-3.4,9.1c-3.2,2.2-5.4,8.6-3.4,13.8c2,5.3,1.4,9.1-0.3,10.8c-1.7,1.7-6.6,1.7-4.9,2.5
									c1.7,0.8,1.7,0.6,2,2.8c0.3,2.2-0.6,7.5-3.4,14.7c-2.9,7.2-3.2,11.4-2.6,19.4c0.6,8,7.5,8.3,6.3,11.4
									c-1.1,3-0.3,3.3,0.3,6.1c0.6,2.8-1.4,6.6-3.2,11.4c-1.7,4.7,1.1,3.6,2.9-0.3c1.7-3.9,2.6-2.2,6.3-5c3.7-2.8,2.9-8.9,3.4-4.7
									c0.6,4.2,1.1,5.8,2.3,3.9c1.1-1.9,1.4-7.5,1.4-11.6c0-4.2,0.3-8,1.1-6.1c0.9,1.9,3.7,0.8,4.6,2.8c0.9,1.9,4,1.7,3.4,3.9
									c-0.6,2.2-4.6,5.3-3.2,5.5c1.4,0.3,7.2-3.9,8-7.5c0.9-3.6-0.9-8.6-0.6-12.2c0.3-3.6,1.1-1.9,3.4,0.3
									c2.3,2.2,5.2,2.5,7.2,1.1c2-1.4-0.3-1.7-4.9-3.9c-4.6-2.2-5.2-6.9-2.9-7.5c2.3-0.6,2.9-1.1,0.9-3c-2-1.9-1.7-1.4-2.6-4.7
									C208.5,234.4,210.2,233.3,213.7,231.4z M103.6,207.3c-3.4-6.1-4.6-9.1-5.2-14.1c-0.6-5,1.4-9.4,1.4-9.4
									c0.6,4.7,2.3,8,4.9,12.2c2.6,4.2,2.3,6.9,2.6,12.2C107.6,213.4,107,213.4,103.6,207.3z"/>
							</g>
						</g>
					</g>
					<path class="st6" d="M186.4,210.4c1.1,4.1-5.3,11.3-7.7,11.3c-2.4,0-6.9,3.1-13,4.7c-6.2,1.6-10.3,1.8-14.3,0.4
						s-8-2.9-11.9-9.1c-3.9-6.2-4.6-7-7-10.1c-2.4-3.1-2.7-3.7-0.7-4c2-0.3,4.4,0.9,6.5,4.3c2,3.4,9.3,11,11.8,13.5
						c2.4,2.5,8.3,5.6,12.5,5.3c4.2-0.3,8.5-6,9.9-8.2c1.4-2.2,6.3-10.8,7.6-12.8c1.3-1.9,4.9-5.3,5.6-3.1
						C186.2,204.8,186.4,210.4,186.4,210.4z"/>
					<path class="st6" d="M109.3,218.5c-5.4-3.2-8.3-9.2-12-11.2c-3.7-2-5.7-2-6.3-3.7s-0.6-3.2,2.3-3.2s8,0,10.6,1.7
						c2.6,1.7,5.4,3.7,6,7.5C110.5,213.3,109.3,218.5,109.3,218.5z"/>
					<path class="st6" d="M209.7,203.6c3.8-1.8,6.6-3.7,8.6-3.2c2,0.6,3.2,1.7,3.4,4.3c0.3,2.6-2,7.5-5.2,6.9
						S209.7,203.6,209.7,203.6z"/>
				</g>
			</g>
		</g>
		<use xlink:href="#SVGID_1_"  style="overflow:visible;fill:none;stroke:#A1C351;stroke-miterlimit:10;"/>
	</g>
</g>
<g id="Laag_3">
	<g>
		<path class="st2" d="M542.4,172.4v67.9h-19.2v-26.5H497v26.5h-19.2v-67.9H497v25.5h26.2v-25.5H542.4z"/>
		<path class="st2" d="M609.5,225.5v14.8H555v-67.9h53.3v14.8H574v11.4h30.2V213H574v12.4H609.5z"/>
		<path class="st2" d="M633.7,187.6h-20.9v-15.2h60.8v15.2h-20.8v52.7h-19.2V187.6z"/>
		<path class="st2" d="M707.1,172.4h19.2v52.7h32.4v15.2h-51.6V172.4z"/>
		<path class="st2" d="M794.8,216v24.3h-19.2v-24.6l-25.9-43.3H770l16.1,27l16.1-27h18.6L794.8,216z"/>
		<path class="st2" d="M818.3,206.4c0-20.7,15.8-35.3,37.3-35.3c12.5,0,22.6,4.6,29.2,12.8l-12.2,11.1c-4.3-5.1-9.5-8-16-8
			c-11.2,0-18.9,7.8-18.9,19.4c0,11.6,7.8,19.4,18.9,19.4c6.5,0,11.7-2.8,16-8l12.2,11.1c-6.6,8.2-16.7,12.8-29.2,12.8
			C834.1,241.7,818.3,227,818.3,206.4z"/>
		<path class="st2" d="M946.9,225.5v14.8h-54.5v-67.9h53.3v14.8h-34.2v11.4h30.2V213h-30.2v12.4H946.9z"/>
		<path class="st2" d="M956,210v-37.6h19.2v37.1c0,11.6,4.8,16.3,12.9,16.3c8,0,12.8-4.7,12.8-16.3v-37.1h18.9V210
			c0,20.3-11.8,31.6-31.9,31.6S956,230.3,956,210z"/>
		<path class="st2" d="M1093.2,240.3l-0.2-36l-17.5,29.3h-8.5l-17.4-28.3v35h-17.8v-67.9h15.8l23.9,39.2l23.3-39.2h15.8l0.2,67.9
			H1093.2z"/>
		<path class="st2" d="M1219.5,172.4l-29.1,67.9h-18.9l-29-67.9h20.8l18.4,44.2l18.8-44.2H1219.5z"/>
		<path class="st2" d="M1218.2,206.4c0-20.4,16-35.3,37.7-35.3c21.7,0,37.7,14.9,37.7,35.3c0,20.4-16,35.3-37.7,35.3
			C1234.2,241.7,1218.2,226.7,1218.2,206.4z M1274.3,206.4c0-11.7-8.1-19.4-18.3-19.4s-18.3,7.7-18.3,19.4
			c0,11.7,8.1,19.4,18.3,19.4S1274.3,218.1,1274.3,206.4z"/>
		<path class="st2" d="M1298,234.2l6.3-14.2c6,4,14.5,6.7,22.4,6.7c8,0,11.1-2.2,11.1-5.5c0-10.8-38.6-2.9-38.6-28.1
			c0-12.1,9.9-22,30.1-22c8.8,0,17.9,2,24.6,5.9l-5.9,14.3c-6.5-3.5-12.9-5.2-18.8-5.2c-8.1,0-11,2.7-11,6.1
			c0,10.4,38.5,2.6,38.5,27.6c0,11.8-9.9,21.9-30.1,21.9C1315.5,241.7,1304.4,238.7,1298,234.2z"/>
	</g>
	<g>
		<path class="st2" d="M509.5,306.5V326h-6.1v-18.8c0-6.7-3.3-9.9-9.2-9.9c-6.5,0-10.8,3.9-10.8,11.3V326h-6.1v-47.5h6.1v18.4
			c2.6-3.3,6.8-5.1,12-5.1C503.7,291.8,509.5,296.5,509.5,306.5z"/>
		<path class="st2" d="M547.1,305.6V326h-5.8v-4.5c-2,3.1-5.8,4.9-11.1,4.9c-7.7,0-12.5-4.1-12.5-10c0-5.4,3.5-9.9,13.6-9.9h9.7
			v-1.2c0-5.2-3-8.2-9.1-8.2c-4,0-8.1,1.4-10.8,3.6l-2.6-4.6c3.5-2.8,8.6-4.4,14-4.4C541.9,291.8,547.1,296.3,547.1,305.6z
			 M541,315.7v-4.7h-9.5c-6.1,0-7.8,2.4-7.8,5.2c0,3.4,2.8,5.5,7.5,5.5C535.8,321.7,539.5,319.6,541,315.7z"/>
		<path class="st2" d="M587.3,292.1L572.4,326h-6.3l-14.8-33.9h6.4l11.6,27.2l11.9-27.2H587.3z"/>
		<path class="st2" d="M588.3,309.1c0-10.1,7.5-17.3,17.7-17.3c10.2,0,17.6,7.2,17.6,17.3c0,10.1-7.4,17.3-17.6,17.3
			C595.8,326.4,588.3,319.2,588.3,309.1z M617.4,309.1c0-7.2-4.9-11.9-11.4-11.9s-11.5,4.7-11.5,11.9s4.9,12,11.5,12
			S617.4,316.3,617.4,309.1z"/>
		<path class="st2" d="M632.3,278.6h5.7v59.9h-5.7V278.6z"/>
		<path class="st2" d="M679.9,292.1L665.1,326h-6.3L644,292.1h6.4l11.6,27.2l11.9-27.2H679.9z"/>
		<path class="st2" d="M735.9,292.1L723.2,326h-5.9l-9.8-25.7l-9.9,25.7h-5.9l-12.6-33.9h5.8l9.9,27l10.2-27h5.2l10,27.1l10.1-27.1
			H735.9z"/>
		<path class="st2" d="M737.4,309.1c0-10.1,7.5-17.3,17.7-17.3c10.2,0,17.6,7.2,17.6,17.3c0,10.1-7.4,17.3-17.6,17.3
			C744.8,326.4,737.4,319.2,737.4,309.1z M766.4,309.1c0-7.2-4.9-11.9-11.4-11.9s-11.5,4.7-11.5,11.9s4.9,12,11.5,12
			S766.4,316.3,766.4,309.1z"/>
		<path class="st2" d="M781.4,278.6h5.7v59.9h-5.7V278.6z"/>
		<path class="st2" d="M818.1,324.1c-1.9,1.6-4.7,2.4-7.4,2.4c-6.8,0-10.8-3.8-10.8-10.6v-18.6h-5.8v-5.1h5.8v-7.4h6.1v7.4h9.7v5.1
			H806v18.4c0,3.6,1.9,5.7,5.3,5.7c1.8,0,3.5-0.6,4.8-1.6L818.1,324.1z"/>
		<path class="st2" d="M843.1,324.1c-1.9,1.6-4.7,2.4-7.4,2.4c-6.8,0-10.8-3.8-10.8-10.6v-18.6h-5.8v-5.1h5.8v-7.4h6.1v7.4h9.7v5.1
			H831v18.4c0,3.6,1.9,5.7,5.3,5.7c1.8,0,3.5-0.6,4.8-1.6L843.1,324.1z"/>
		<path class="st2" d="M845.6,309.1c0-10.1,7.5-17.3,17.7-17.3c10.2,0,17.6,7.2,17.6,17.3c0,10.1-7.4,17.3-17.6,17.3
			C853.1,326.4,845.6,319.2,845.6,309.1z M874.6,309.1c0-7.2-4.9-11.9-11.4-11.9s-11.5,4.7-11.5,11.9s4.9,12,11.5,12
			S874.6,316.3,874.6,309.1z"/>
	</g>
</g>
</svg>
